<?xml version="1.0" standalone="no"?>
<!DOCTYPE svg PUBLIC "-//W3C//DTD SVG 20010904//EN"
 "http://www.w3.org/TR/2001/REC-SVG-20010904/DTD/svg10.dtd">
<svg version="1.0" xmlns="http://www.w3.org/2000/svg"
 width="835.000000pt" height="835.000000pt" viewBox="0 0 835.000000 835.000000"
 preserveAspectRatio="xMidYMid meet">
<metadata>
Created by potrace 1.11, written by Peter Selinger 2001-2013
</metadata>
<g transform="translate(0.000000,835.000000) scale(0.100000,-0.100000)"
fill="#000000" stroke="none">
<path d="M0 5521 l0 -2829 60 2 c39 1 60 5 60 13 0 19 21 27 32 12 6 -10 8 -5
6 16 -2 18 2 29 8 28 6 -1 22 9 34 22 13 14 35 26 49 26 17 1 20 3 8 6 -15 4
-16 6 -2 26 17 24 20 67 5 67 -6 0 -13 -13 -16 -30 -4 -16 -10 -30 -15 -30
-13 0 -10 22 5 43 8 10 12 27 9 37 -3 12 0 20 7 20 7 0 10 7 6 15 -3 9 3 20
14 27 11 7 20 21 20 30 0 10 5 18 10 18 6 0 10 -13 10 -30 0 -22 4 -28 15 -24
10 4 15 0 15 -10 0 -12 6 -15 25 -10 21 5 25 3 25 -15 0 -14 -6 -21 -20 -21
-15 0 -22 -9 -26 -30 -4 -16 -10 -27 -15 -24 -5 3 -12 -8 -15 -25 -4 -17 -10
-31 -15 -31 -5 0 -9 -6 -9 -14 0 -8 -8 -17 -18 -20 -9 -3 0 -4 20 -3 21 2 38
-1 38 -5 0 -4 7 -8 15 -8 8 0 15 5 15 10 0 6 5 10 10 10 6 0 10 -6 10 -14 0
-7 8 -20 18 -27 9 -7 14 -10 10 -5 -8 10 20 40 46 50 16 5 16 9 5 23 -12 15
-11 16 9 11 12 -4 20 -3 17 2 -3 4 2 11 11 14 8 3 12 10 9 16 -9 15 -25 12
-25 -5 0 -8 -7 -15 -16 -15 -13 0 -15 7 -11 34 3 19 1 36 -3 38 -14 5 1 48 16
48 17 0 18 -27 2 -33 -20 -8 13 -28 35 -21 10 3 24 1 32 -6 9 -8 15 -8 20 0
11 19 33 -8 28 -34 -3 -13 0 -27 6 -30 7 -4 11 1 11 12 0 11 7 22 15 26 8 3
15 12 15 21 0 8 9 24 21 36 16 16 23 18 35 8 19 -15 18 -49 -1 -49 -8 0 -15
-7 -15 -15 0 -9 9 -15 25 -15 14 0 25 -3 25 -8 0 -4 18 -6 40 -4 22 2 40 8 40
13 0 5 11 9 25 9 14 0 25 5 25 10 0 6 15 17 33 25 18 8 25 14 15 15 -10 0 -18
5 -18 10 0 6 6 10 13 9 33 -4 41 1 21 16 -18 15 -17 15 21 13 27 -1 39 2 38
10 -2 7 2 12 7 12 6 0 10 7 10 15 0 8 4 15 10 15 21 0 49 39 43 59 -3 12 -10
21 -16 21 -6 0 -8 2 -5 5 2 3 22 -4 43 -15 22 -11 33 -20 25 -20 -7 0 -11 -2
-8 -5 3 -3 13 -3 22 1 15 6 15 9 -5 30 -12 13 -18 25 -13 25 5 1 16 2 24 3 8
0 16 11 18 23 3 18 0 21 -13 17 -13 -6 -14 -8 -3 -15 10 -7 9 -9 -5 -9 -24 0
-17 22 11 35 11 5 23 16 26 25 3 8 9 21 12 28 8 17 -11 15 -30 -3 -9 -9 -17
-11 -21 -5 -8 13 4 32 16 25 5 -4 9 -1 9 5 0 18 -33 47 -65 55 -16 4 -24 10
-17 12 6 3 12 11 12 19 0 8 7 17 15 20 8 4 15 12 15 19 0 18 24 25 41 13 11
-8 10 -9 -3 -4 -19 6 -26 -18 -8 -29 6 -3 8 -18 5 -33 -4 -20 -2 -18 8 8 9 23
21 36 35 38 12 2 22 8 22 13 0 14 28 11 33 -3 2 -7 8 0 12 15 4 16 13 26 19
24 6 -2 21 -1 34 4 18 7 21 14 16 34 -5 20 -3 25 14 25 15 0 18 -5 14 -25 -2
-15 0 -25 7 -25 7 0 9 5 6 11 -4 6 -1 9 6 8 8 -2 24 2 36 9 18 10 27 10 43 0
21 -14 27 -28 10 -28 -19 0 -10 -21 13 -30 20 -8 20 -9 3 -9 -14 -1 -17 -4 -9
-12 7 -7 20 -4 44 10 33 20 60 28 45 14 -3 -4 10 -15 30 -25 32 -15 39 -16 57
-3 12 8 16 15 9 15 -9 0 -11 7 -7 20 5 16 2 20 -19 20 -35 0 -37 29 -5 63 15
15 32 27 38 27 5 0 14 8 20 17 5 10 13 15 16 11 4 -4 -2 -19 -12 -35 -37 -53
-36 -62 5 -59 20 1 47 -1 60 -6 16 -6 28 -4 38 7 9 8 12 15 8 15 -14 0 30 29
44 30 9 0 12 -10 10 -27 -2 -20 -13 -33 -38 -45 -19 -10 -28 -18 -20 -18 9 0
11 -3 5 -8 -5 -4 -11 -14 -13 -23 -1 -11 6 -16 28 -16 18 0 26 3 19 8 -10 6
-10 11 -1 22 7 7 9 17 5 20 -3 4 12 7 35 7 31 0 42 -4 42 -15 0 -8 6 -15 13
-15 7 0 22 -7 33 -16 18 -15 18 -15 -10 -9 -27 6 -28 5 -16 -11 13 -14 12 -19
-8 -34 -12 -10 -22 -24 -22 -30 0 -10 3 -10 15 0 8 7 15 9 15 6 0 -4 6 -1 14
6 7 7 11 19 8 27 -3 9 0 12 9 9 8 -3 14 -16 14 -29 0 -14 6 -24 15 -24 8 0 14
7 12 16 -4 26 25 31 32 6 4 -15 -1 -27 -17 -39 -21 -16 -21 -17 -3 -24 13 -5
22 -2 28 10 7 12 17 16 32 12 13 -3 31 1 42 9 21 16 64 20 64 6 0 -5 -6 -12
-13 -14 -9 -4 -8 -8 3 -16 13 -9 11 -11 -6 -11 -12 0 -27 -7 -34 -15 -7 -8
-16 -12 -21 -9 -5 3 -9 0 -9 -5 0 -17 40 -13 46 4 8 21 21 19 27 -5 3 -11 11
-20 19 -19 10 0 10 2 1 6 -24 9 -13 20 15 15 18 -2 35 2 45 13 10 9 17 11 17
5 0 -6 4 -9 10 -5 5 3 7 12 3 20 -3 8 0 15 6 15 6 0 11 7 11 15 0 8 -4 15 -10
15 -5 0 -10 -4 -10 -10 0 -5 -4 -10 -10 -10 -17 0 -11 28 8 40 16 11 16 11 0
6 -21 -6 -34 12 -20 26 15 15 50 -7 54 -34 2 -12 9 -23 17 -26 10 -3 12 3 6
26 -7 33 3 46 25 30 12 -8 12 -9 -2 -4 -22 7 -23 -1 -4 -20 8 -8 20 -12 28 -9
18 6 45 -16 45 -37 0 -9 -5 -14 -10 -11 -6 4 -8 -3 -4 -18 4 -13 7 -36 7 -51
0 -17 5 -26 12 -24 7 3 25 7 40 10 14 3 28 14 30 24 3 12 8 8 18 -16 9 -19 20
-30 28 -27 7 3 10 0 7 -5 -3 -6 -11 -10 -16 -10 -19 0 -39 -28 -32 -46 4 -12
3 -15 -5 -10 -7 4 -12 1 -12 -9 0 -13 4 -14 20 -5 11 6 20 20 20 31 0 11 4 18
10 14 5 -3 6 -13 3 -23 -6 -15 -5 -15 11 -2 17 13 21 12 41 -14 14 -18 29 -27
43 -24 22 3 82 -52 82 -77 0 -8 4 -15 9 -15 5 0 13 -10 17 -22 4 -13 10 -25
14 -28 7 -5 90 -175 90 -184 0 -5 8 -16 53 -69 10 -12 39 -62 63 -112 25 -49
51 -94 58 -100 7 -5 21 -26 31 -45 37 -72 103 -156 203 -256 56 -56 102 -107
102 -112 0 -17 100 -111 179 -168 68 -48 84 -65 109 -118 39 -81 49 -113 67
-225 21 -129 20 -153 -7 -170 -22 -14 -89 -36 -193 -66 -33 -9 -65 -21 -72
-27 -7 -5 -27 -14 -45 -18 -18 -5 -58 -17 -88 -28 -30 -10 -77 -24 -105 -30
-27 -6 -85 -19 -128 -28 -68 -16 -80 -16 -88 -3 -5 9 -9 10 -9 2 0 -10 -116
-73 -135 -73 -4 0 -36 -14 -72 -31 -35 -17 -78 -32 -94 -34 -16 -2 -34 -7 -39
-10 -15 -10 -12 6 6 26 14 15 14 17 -3 15 -12 -1 -17 5 -15 17 3 15 -1 17 -18
12 -19 -6 -21 -4 -16 13 6 18 3 19 -28 15 -28 -4 -37 0 -46 17 -8 14 -8 25 -2
33 14 17 3 65 -17 70 -14 4 -14 5 2 6 21 1 23 43 3 60 -16 13 -17 81 -2 78 6
-1 12 8 14 21 3 22 22 32 22 10 0 -6 2 -9 5 -7 2 3 2 15 -2 27 -4 16 -9 19
-22 13 -9 -5 -23 -6 -31 -4 -13 4 -13 3 0 -6 8 -5 12 -13 8 -16 -13 -13 -46
38 -46 71 0 34 1 35 36 32 22 -2 37 2 40 10 2 6 9 12 17 12 7 0 18 7 26 16 10
13 10 17 -2 25 -12 7 -11 9 3 9 11 0 15 6 11 21 -3 11 -11 18 -19 15 -7 -3
-16 -1 -19 4 -4 6 -1 10 4 10 6 0 11 15 11 34 0 19 6 37 12 39 9 4 8 6 -2 6
-8 0 -24 -6 -34 -14 -20 -15 -20 -15 0 -30 23 -17 5 -20 -31 -3 -26 12 -35 38
-12 38 9 0 12 9 9 30 -3 24 0 30 21 35 14 4 28 14 31 22 5 11 2 13 -11 8 -38
-15 -56 -18 -49 -7 3 6 -3 12 -16 14 -25 4 -37 28 -14 28 9 0 16 7 16 15 0 8
-4 15 -10 15 -5 0 -10 4 -10 10 0 5 8 7 18 3 9 -3 14 -3 10 1 -4 5 -3 18 2 31
6 17 5 27 -5 35 -11 9 -14 6 -17 -12 -3 -14 -7 -3 -12 30 -7 47 -10 52 -31 48
-12 -2 -31 -9 -41 -14 -11 -6 -27 -13 -37 -16 -10 -3 -26 -24 -35 -46 -12 -29
-22 -39 -34 -36 -9 2 -19 -1 -22 -8 -3 -7 -5 -7 -5 2 -1 7 8 23 19 34 15 16
17 24 8 29 -7 4 -16 5 -21 2 -5 -3 -8 12 -5 36 2 24 -1 41 -7 41 -5 0 -4 4 3
9 10 6 10 10 -2 20 -8 7 -20 10 -26 6 -7 -4 -14 2 -17 14 -4 17 -8 19 -19 10
-11 -9 -14 -8 -14 5 0 9 -7 16 -16 16 -13 0 -15 -7 -9 -42 7 -38 6 -41 -8 -30
-13 11 -18 9 -32 -12 -9 -14 -31 -32 -48 -41 -36 -18 -37 -18 -37 -2 0 18 -43
53 -48 39 -7 -21 -20 -13 -30 17 -8 22 -7 31 1 34 23 9 -8 26 -51 28 -23 2
-42 6 -42 11 0 4 -6 5 -14 2 -11 -4 -16 4 -18 28 -4 47 -39 46 -55 -2 -9 -25
-12 -29 -12 -13 -1 32 -21 39 -21 8 0 -19 -4 -26 -13 -22 -8 3 -20 1 -28 -4
-11 -8 -11 -9 3 -7 9 2 17 -1 18 -7 2 -16 -30 -18 -57 -4 -20 11 -26 11 -32 0
-6 -9 -10 -6 -15 11 l-6 23 -19 -24 c-15 -20 -25 -23 -60 -19 -42 4 -43 3 -37
-23 3 -18 0 -29 -8 -32 -9 -4 -12 0 -9 13 3 10 0 21 -6 24 -7 5 -11 -1 -11
-14 0 -14 -5 -20 -13 -17 -8 3 -14 -3 -14 -14 -1 -12 5 -19 15 -19 15 0 15 -2
2 -10 -8 -5 -25 -10 -37 -10 -13 0 -23 -4 -23 -9 0 -5 -16 -12 -35 -15 -19 -4
-35 -11 -35 -15 0 -5 -16 -19 -36 -30 -20 -12 -38 -30 -41 -41 -3 -11 -10 -20
-17 -20 -18 -1 -53 -34 -60 -58 -4 -12 -14 -29 -23 -38 -14 -13 -14 -17 -2
-25 11 -7 10 -9 -6 -10 -11 0 -15 -3 -9 -5 14 -6 4 -57 -17 -93 -11 -18 -11
-25 -1 -28 6 -3 12 -12 12 -21 0 -10 9 -23 20 -30 23 -14 25 -10 9 20 -11 20
-11 20 14 2 19 -14 22 -22 14 -32 -8 -10 -7 -16 3 -22 12 -7 12 -15 0 -49 -7
-23 -17 -41 -22 -41 -4 0 -8 -9 -8 -20 0 -13 -5 -17 -14 -14 -11 4 -13 0 -9
-15 3 -12 1 -21 -5 -21 -15 0 -33 26 -25 36 4 5 1 4 -6 -3 -12 -10 -12 -15 -1
-28 7 -8 19 -15 26 -15 8 0 14 -7 14 -15 0 -8 -6 -13 -12 -11 -7 1 -10 1 -5
-1 4 -3 7 -11 7 -19 0 -8 6 -14 13 -13 25 3 38 -1 32 -11 -4 -6 -11 -8 -16 -5
-5 4 -9 1 -9 -5 0 -6 9 -14 20 -18 21 -8 16 -23 -15 -40 -19 -10 -18 -12 11
-18 31 -6 31 -7 18 -33 -8 -14 -14 -35 -14 -47 0 -12 -14 -31 -30 -44 -23 -17
-27 -26 -18 -32 10 -6 9 -12 -6 -23 -11 -8 -26 -15 -33 -15 -7 0 -13 -7 -13
-15 0 -9 -9 -15 -25 -15 -16 0 -25 -6 -25 -15 0 -8 -4 -15 -10 -15 -5 0 -10
-16 -10 -35 0 -19 -3 -34 -7 -34 -24 4 -25 -4 -3 -21 14 -11 18 -18 9 -15 -10
4 -19 0 -22 -9 -4 -10 -1 -16 9 -16 25 0 12 -35 -14 -38 -16 -2 -22 -8 -18
-18 3 -9 -1 -14 -13 -14 -11 0 -21 -9 -25 -22 -9 -34 -8 -36 20 -30 19 3 25 1
20 -7 -4 -6 -13 -11 -20 -11 -18 0 -27 -35 -13 -49 7 -7 6 -12 -6 -16 -9 -4
-13 -13 -11 -20 3 -8 -4 -20 -15 -27 -21 -13 -29 -30 -12 -26 13 4 11 -14 -5
-36 -7 -11 -19 -16 -28 -13 -21 8 -32 -14 -12 -25 27 -15 19 -31 -14 -24 -22
4 -30 2 -30 -9 0 -8 -7 -15 -15 -15 -8 0 -15 -4 -15 -10 0 -13 17 -13 25 0 8
12 45 13 45 1 0 -5 -15 -15 -33 -22 -34 -14 -65 -39 -48 -39 5 0 13 5 16 10 3
6 13 10 21 10 12 0 12 -4 4 -20 -6 -11 -20 -20 -30 -20 -22 0 -27 -16 -7 -23
20 -7 -60 -26 -84 -20 -14 4 -20 2 -16 -4 4 -6 47 -10 109 -8 57 1 112 -2 123
-6 12 -4 51 -4 88 0 38 4 70 4 72 0 3 -4 39 -5 80 -3 47 2 73 0 70 -6 -4 -6
-15 -10 -26 -10 -10 0 -19 -5 -19 -11 0 -5 4 -7 10 -4 5 3 10 2 10 -3 0 -11
-85 -27 -193 -38 -60 -6 -100 -21 -65 -26 7 0 27 -3 43 -5 17 -2 47 -3 68 -3
25 1 36 -3 32 -10 -3 -5 -2 -10 4 -10 5 0 11 5 13 12 3 7 13 3 27 -11 l23 -23
-35 4 c-20 2 -34 0 -31 -4 2 -4 -4 -12 -15 -18 -14 -7 -22 -7 -26 0 -5 8 -11
8 -20 0 -7 -6 -28 -11 -46 -10 -19 0 -63 -4 -99 -10 -36 -5 -155 -12 -265 -15
-110 -3 -209 -7 -220 -9 -11 -2 -49 -7 -85 -11 -36 -4 -94 -11 -130 -15 -36
-4 348 -8 853 -9 730 -1 917 2 915 12 -1 6 23 59 54 117 31 58 62 117 68 132
7 14 18 24 24 22 11 -4 15 4 52 98 10 25 23 44 28 41 5 -4 7 1 3 11 -8 19 19
86 34 86 5 0 9 6 9 13 0 7 13 27 30 45 16 18 30 38 30 44 0 14 67 97 99 123
27 22 66 36 75 27 7 -7 43 -12 111 -16 40 -3 55 1 74 18 l24 21 -7 -28 c-6
-26 -5 -27 14 -17 11 6 20 14 20 18 1 12 51 65 57 59 3 -3 -4 -19 -16 -35 -26
-37 -27 -52 -2 -52 11 0 21 -6 24 -12 3 -10 10 -8 23 6 19 18 18 18 -3 11 -34
-10 -28 4 22 52 25 23 45 48 45 55 0 6 -14 -1 -30 -17 -17 -16 -30 -24 -30
-18 0 17 40 63 55 63 7 0 15 6 18 13 2 6 6 -1 9 -17 4 -22 0 -35 -18 -53 -28
-28 -33 -54 -6 -30 20 19 37 23 27 7 -12 -20 -14 -50 -3 -56 7 -4 8 -2 4 4 -5
8 4 12 28 12 25 0 36 -5 36 -15 0 -16 -43 -31 -59 -20 -7 3 -8 0 -5 -9 3 -9 1
-16 -5 -16 -6 0 -11 5 -11 11 0 6 -7 8 -16 5 -12 -4 -15 -2 -10 9 3 8 1 15 -4
15 -12 0 -40 -53 -40 -75 0 -9 -13 -21 -30 -26 -22 -8 -30 -17 -30 -35 0 -13
3 -24 6 -24 3 0 27 23 53 52 43 46 50 51 63 37 13 -13 13 -16 -1 -29 -8 -8
-17 -13 -19 -12 -2 2 -6 2 -8 -1 -3 -2 2 -7 10 -10 8 -3 24 3 37 14 12 10 19
19 14 19 -4 0 -2 7 5 15 7 8 20 15 29 15 14 -1 14 -2 -1 -14 -10 -7 -18 -19
-18 -27 0 -8 -32 -43 -71 -78 -50 -47 -66 -67 -56 -72 27 -16 51 -2 71 42 14
30 28 45 44 47 24 4 53 38 47 56 -2 6 14 31 37 56 23 25 36 37 29 28 -9 -12
-10 -26 -4 -43 l9 -27 18 21 c11 12 14 21 8 21 -7 0 -12 6 -12 13 0 20 40 59
56 53 8 -3 11 0 8 9 -3 7 4 18 15 25 18 9 21 8 21 -10 0 -22 19 -27 38 -8 17
17 15 49 -2 42 -9 -3 -15 4 -18 20 -3 14 -1 23 4 20 5 -4 16 3 24 15 9 12 20
19 25 16 5 -4 16 1 25 9 16 17 34 21 34 8 0 -4 -13 -24 -30 -43 -16 -20 -31
-47 -34 -61 -6 -36 -28 -68 -47 -68 -25 0 -52 -36 -44 -59 8 -26 -21 -84 -38
-75 -9 5 -9 4 -1 -5 9 -9 4 -27 -18 -69 l-30 -57 27 30 c15 17 38 55 53 85 14
30 27 49 30 42 7 -21 -7 -60 -27 -79 -10 -10 -22 -34 -26 -53 -7 -31 -6 -33 9
-21 9 7 20 31 26 52 6 21 21 46 34 56 12 10 29 29 36 43 7 14 19 31 27 38 7 7
13 18 13 24 0 6 -11 -1 -26 -17 -30 -33 -41 -27 -21 12 8 15 17 41 21 57 4 16
24 54 46 85 43 63 154 185 144 159 -3 -10 -1 -32 5 -49 10 -28 8 -38 -16 -78
-14 -25 -28 -57 -29 -71 -5 -46 -10 -59 -31 -82 -11 -13 -26 -34 -33 -46 -6
-13 -14 -21 -17 -18 -3 3 0 14 8 23 7 10 1 7 -15 -7 -22 -20 -24 -26 -12 -28
18 -4 20 -11 6 -32 -8 -13 -10 -12 -10 3 0 16 -2 17 -15 4 -20 -20 -29 -63
-15 -72 8 -5 7 -12 -5 -25 -9 -10 -18 -26 -19 -35 -1 -9 -9 -21 -17 -27 -11
-7 -11 -11 -1 -15 19 -7 15 -31 -12 -66 -13 -18 -37 -62 -53 -100 -16 -37 -32
-64 -36 -61 -4 4 -11 -5 -17 -20 -8 -21 -7 -31 5 -42 11 -11 12 -21 5 -40 -6
-14 -8 -30 -4 -35 3 -5 2 -9 -3 -9 -4 0 -13 -11 -20 -25 -11 -24 -10 -25 27
-25 24 0 40 5 44 15 5 13 -5 19 -26 16 -4 0 -5 6 -1 14 4 12 9 13 19 4 11 -9
14 -7 14 8 0 10 4 23 9 29 15 16 24 67 10 58 -7 -4 -10 -2 -7 7 3 8 12 13 22
11 9 -2 16 2 16 8 0 5 -5 10 -11 10 -16 0 0 42 22 60 13 11 16 19 9 26 -7 7
-5 16 5 30 15 18 15 18 9 -8 -8 -37 18 -38 34 -3 15 33 15 35 -2 35 -22 0 -26
25 -5 38 12 8 19 8 19 2 0 -5 -5 -10 -12 -10 -6 0 -9 -3 -6 -6 4 -3 19 3 35
13 l28 18 -17 -27 c-13 -20 -14 -28 -5 -31 9 -4 9 -8 -2 -15 -7 -5 -11 -14 -7
-20 3 -6 0 -13 -6 -15 -7 -3 -3 -6 9 -6 16 -1 21 -6 17 -16 -4 -9 -1 -15 7
-15 8 0 7 -5 -5 -13 -21 -15 -13 -44 16 -53 18 -5 19 -12 14 -47 -6 -36 -37
-83 -47 -72 -2 2 -12 -8 -22 -21 l-18 -24 120 0 c66 0 126 3 135 6 9 4 16 18
16 34 0 24 -3 27 -21 23 -20 -6 -21 -3 -15 32 7 35 6 37 -8 26 -13 -11 -16
-11 -16 3 0 9 4 16 8 16 11 0 32 46 31 68 0 14 -2 14 -9 -3 -7 -15 -9 -8 -8
28 1 31 6 47 15 47 7 0 13 5 13 10 0 6 -4 10 -9 10 -5 0 -3 13 5 30 9 16 16
43 16 59 1 18 10 38 25 50 23 21 34 69 11 55 -8 -5 -9 2 -5 25 4 20 3 30 -3
26 -6 -3 -10 -4 -10 -2 0 10 35 73 47 85 11 11 13 10 13 -8 0 -12 -4 -18 -10
-15 -5 3 -10 -1 -10 -9 0 -9 9 -16 21 -16 11 0 17 4 14 10 -3 5 -1 10 5 10 6
0 9 8 6 18 -3 9 -1 24 5 32 9 13 10 12 5 -2 -3 -10 -1 -20 4 -23 6 -3 5 -16
-1 -32 -12 -33 -4 -41 19 -20 25 23 29 22 27 -12 -1 -17 3 -29 9 -28 10 2 13
-12 19 -90 2 -30 3 -31 20 -15 17 15 17 15 11 -1 -4 -12 -1 -17 10 -17 10 0
16 -9 16 -25 0 -14 -4 -25 -9 -25 -5 0 -4 -20 1 -45 7 -31 6 -50 -1 -59 -6 -7
-13 -38 -17 -69 -5 -42 -14 -65 -35 -89 -33 -36 -34 -41 -16 -57 11 -8 13 -6
13 11 -1 24 13 32 34 18 13 -8 12 -11 -5 -25 -15 -12 -16 -15 -4 -12 13 4 15
1 12 -14 -8 -29 26 -24 37 6 7 18 14 23 27 18 15 -6 16 -4 6 9 -7 8 -10 18 -6
21 3 4 13 -3 21 -15 15 -20 16 -20 30 -2 13 18 14 17 7 -6 -7 -22 -6 -23 9
-11 9 7 16 9 16 3 0 -5 15 -10 33 -9 25 1 33 6 34 20 3 34 25 87 34 82 10 -7
11 0 15 85 1 30 3 57 4 60 1 3 2 38 3 78 1 49 6 75 16 81 9 6 10 11 2 15 -6 4
-11 12 -11 17 0 6 4 8 9 5 5 -3 11 3 14 14 3 11 1 18 -4 15 -4 -3 -6 11 -4 31
3 19 2 41 -2 47 -9 15 -12 47 -4 47 3 0 7 16 8 35 1 20 -3 33 -8 30 -5 -4 -9
1 -9 9 0 9 -7 16 -15 16 -9 0 -12 6 -9 15 4 8 1 22 -5 29 -10 11 -8 16 5 24
23 13 54 4 47 -14 -3 -8 0 -14 7 -14 6 0 9 -4 6 -9 -4 -5 3 -7 14 -4 11 3 23
9 25 14 3 4 12 6 20 2 8 -3 15 0 15 6 0 6 -6 10 -12 9 -16 -4 -12 27 7 62 27
50 36 73 28 79 -5 3 -10 28 -11 56 -4 59 -9 66 -28 41 -17 -24 -17 -15 -3 74
9 53 9 73 0 84 -9 10 -9 20 0 40 9 18 9 29 1 39 -11 12 -12 24 -12 92 0 16 -4
44 -9 62 -6 22 -5 39 5 58 7 14 11 32 8 39 -8 22 41 156 57 156 4 0 10 -8 13
-17 5 -12 10 -13 18 -5 7 7 19 7 35 1 14 -5 29 -7 34 -4 4 3 11 -6 15 -20 7
-29 24 -34 24 -7 0 10 6 24 13 31 10 11 10 13 -1 7 -14 -8 -17 10 -3 19 5 3
17 -5 25 -17 13 -19 16 -19 21 -5 17 55 16 53 25 37 4 -8 7 -18 7 -21 -3 -11
25 -39 34 -33 5 3 7 27 3 54 l-6 48 35 4 c44 5 57 0 57 -19 0 -28 25 -6 30 27
7 46 50 78 84 62 13 -6 27 -8 30 -5 13 13 5 56 -11 69 -17 13 -17 14 0 8 10
-4 17 -3 15 2 -1 5 3 19 10 32 15 27 10 28 -26 3 -55 -37 -87 -55 -95 -53 -5
1 -23 -4 -40 -11 -59 -26 -161 -40 -317 -44 -199 -5 -201 -5 -215 7 -7 6 -43
13 -80 16 -47 4 -74 12 -88 25 -11 10 -28 21 -38 24 -9 3 -20 13 -23 21 -4 9
-13 13 -24 10 -13 -4 -21 2 -29 24 -8 22 -16 28 -28 24 -10 -4 -15 -2 -13 7 2
8 -3 13 -11 11 -8 -2 -11 3 -8 13 4 8 2 15 -3 15 -5 0 -12 15 -16 34 -3 19
-14 42 -24 51 -11 10 -16 24 -12 37 3 13 -1 24 -12 30 -9 5 -16 16 -16 23 0 8
-4 15 -9 15 -6 0 -3 12 5 28 7 15 14 34 14 42 -1 8 -8 2 -16 -13 -14 -27 -42
-33 -37 -8 2 6 -2 11 -7 11 -6 0 -10 -6 -10 -12 -1 -8 -6 -6 -14 4 -7 10 -18
18 -24 18 -6 0 -14 21 -18 48 -4 26 -10 57 -15 69 -6 17 -4 25 9 32 16 10 16
10 0 11 -22 0 -23 29 -3 56 13 16 14 16 9 1 -4 -11 -1 -17 8 -17 8 0 23 -9 33
-20 10 -11 22 -17 26 -14 5 3 6 -2 3 -10 -8 -20 6 -20 32 -1 11 8 14 15 7 15
-15 0 -18 30 -4 30 5 0 11 -7 15 -15 3 -8 11 -15 17 -15 8 0 8 4 1 13 -7 8 -7
18 -2 27 7 11 10 12 10 2 0 -11 3 -11 14 0 21 22 28 55 16 79 -9 16 -9 23 -1
29 14 8 -5 48 -45 93 -16 18 -28 34 -27 37 1 3 0 15 -4 28 -8 33 4 39 18 9 11
-25 11 -25 31 -5 20 20 20 20 -9 50 -27 30 -27 31 -5 25 19 -4 22 -2 17 14 -4
10 0 28 8 40 l15 21 7 -22 c4 -13 8 -29 9 -36 4 -29 16 -26 16 4 0 18 5 32 12
32 6 0 8 3 5 7 -8 7 34 32 46 26 4 -2 2 -13 -3 -23 -8 -15 -6 -21 11 -31 12
-6 19 -7 16 -2 -3 5 -2 15 3 23 5 8 3 19 -5 27 -8 7 -12 21 -9 31 5 14 4 15
-5 2 -6 -9 -11 -10 -11 -3 0 6 13 21 29 32 21 15 28 27 24 42 -6 23 -19 15
-25 -16 -5 -29 -57 -30 -99 -2 -29 19 -34 29 -37 67 -3 52 19 87 58 92 14 2
31 7 38 11 17 11 32 0 32 -24 0 -27 17 -24 24 4 7 29 44 47 96 47 21 0 42 4
45 10 4 6 15 4 29 -5 12 -8 25 -13 28 -10 3 3 11 -1 18 -10 11 -13 15 -12 32
10 11 14 29 25 42 25 12 0 27 5 33 11 7 7 21 4 46 -10 35 -19 35 -19 53 0 9
10 25 19 34 19 10 0 23 7 30 15 9 11 16 13 24 5 5 -5 22 -10 36 -10 14 0 35
-6 45 -14 17 -12 23 -12 45 3 28 20 92 18 110 -4 8 -9 20 -10 51 -1 37 10 42
9 58 -12 l17 -23 39 30 c28 21 52 31 78 31 36 0 38 2 35 27 -2 20 -9 27 -28
28 -14 1 -29 3 -35 5 -5 2 -30 -2 -55 -9 -28 -8 -105 -13 -210 -13 -384 1
-581 -3 -600 -12 -44 -19 -422 -25 -428 -6 -2 5 -12 4 -24 -3 -16 -9 -22 -9
-25 0 -2 7 -11 9 -19 6 -19 -7 -19 41 1 57 8 7 15 19 15 26 0 8 4 14 9 14 11
0 24 35 25 65 1 13 7 19 18 17 10 -2 23 8 32 25 10 21 31 35 78 52 34 12 75
25 91 28 19 4 27 11 27 25 0 16 -5 19 -21 15 -11 -3 -22 0 -25 7 -3 8 -25 13
-62 13 -55 0 -132 20 -132 35 0 4 -7 5 -15 2 -9 -4 -15 0 -15 10 0 9 -6 16
-14 16 -8 0 -16 4 -18 8 -1 4 -23 17 -48 29 -35 16 -48 18 -59 10 -12 -10 -13
-8 -9 9 4 17 2 20 -13 17 -11 -3 -19 0 -19 7 0 7 -7 10 -15 6 -8 -3 -15 0 -15
6 0 6 -3 9 -6 5 -7 -6 -55 47 -73 81 -7 13 -15 56 -18 96 -5 63 -2 79 20 126
14 30 31 78 38 105 6 28 16 55 21 61 4 6 6 19 2 28 -3 9 -1 16 5 16 6 0 11 9
11 20 0 12 17 47 38 78 37 55 102 232 117 317 8 44 30 85 70 130 41 47 54 79
66 161 11 77 -2 207 -21 219 -5 3 -5 19 0 35 9 31 -5 44 -16 15 -8 -21 -34
-19 -35 3 0 10 -3 12 -6 5 -8 -20 -23 -15 -23 8 0 11 -3 18 -7 16 -15 -9 -54
13 -47 24 4 8 3 9 -4 5 -7 -4 -12 -3 -12 1 0 5 -12 10 -27 11 -35 3 -51 18
-35 34 8 8 12 9 12 1 0 -6 6 -10 13 -9 30 7 47 19 47 36 0 10 6 20 13 23 10 4
10 7 0 18 -15 16 -17 33 -3 24 6 -3 10 1 10 9 0 9 -7 16 -15 16 -7 0 -18 7
-22 15 -12 20 -73 38 -73 22 0 -8 -3 -8 -8 -2 -4 6 -25 10 -48 11 -42 1 -144
33 -144 45 0 4 -12 10 -27 14 -15 3 -34 15 -43 24 -8 10 -24 20 -35 23 -15 3
-20 12 -20 38 0 19 -4 41 -9 49 -7 10 -4 12 13 6 16 -5 20 -3 15 9 -3 9 -1 16
5 16 6 0 11 -4 11 -10 0 -5 7 -7 15 -4 8 4 15 17 15 30 0 25 9 31 26 14 6 -6
10 -2 10 13 0 12 -5 27 -12 32 -20 17 -28 55 -10 55 8 0 18 9 21 20 9 28 28
25 23 -3 -4 -22 -2 -23 39 -19 35 3 43 1 43 -12 0 -9 5 -16 10 -16 6 0 10 -11
10 -25 0 -18 5 -25 19 -25 10 0 22 -7 25 -16 9 -22 8 -24 -10 -24 -14 0 -14
-2 -3 -16 12 -14 14 -13 21 6 7 19 14 21 38 16 22 -4 30 -2 30 8 0 8 6 17 13
20 6 4 2 4 -10 2 -13 -2 -23 0 -23 5 0 5 11 9 24 9 13 0 29 7 36 15 14 17 30
20 30 5 0 -5 -7 -10 -15 -10 -10 0 -15 -10 -15 -26 l0 -27 24 24 c33 34 41 65
19 78 -10 6 -13 11 -6 11 16 0 12 49 -5 59 -7 4 -12 14 -10 22 2 8 -3 13 -11
11 -9 -2 -12 4 -8 18 3 11 1 23 -4 26 -12 7 -12 24 1 24 5 0 16 -12 24 -27 9
-17 15 -22 16 -12 0 9 -3 19 -7 23 -4 4 -8 17 -8 29 -2 44 -17 107 -26 107 -5
0 -9 19 -9 43 1 37 2 39 12 22 7 -11 14 -35 17 -54 8 -49 29 -51 33 -4 4 37 4
38 16 13 l12 -25 -3 28 c-4 26 -3 26 13 12 23 -21 28 -12 22 40 -2 25 -2 45 1
45 10 0 35 -54 30 -67 -2 -6 1 -15 8 -19 16 -9 4 69 -17 110 -21 43 -18 59 9
51 18 -6 20 -5 10 6 -18 18 -16 34 1 20 15 -13 32 1 22 18 -4 5 -2 20 3 33 9
22 10 22 12 -7 1 -16 2 -38 1 -47 -1 -10 4 -18 12 -18 16 0 26 21 26 53 0 13
3 17 8 11 4 -6 15 -13 25 -17 12 -4 17 -17 17 -42 0 -19 3 -35 8 -35 4 0 7
-22 8 -49 1 -59 10 -85 25 -75 8 5 8 9 -1 14 -9 6 -9 12 0 30 6 12 9 31 7 42
-4 15 -3 17 8 8 7 -6 15 -32 18 -58 8 -72 27 -165 37 -184 6 -10 10 -22 10
-28 0 -6 9 -29 19 -53 31 -68 34 -80 32 -116 -2 -23 1 -31 9 -26 14 9 77 -58
72 -75 -3 -8 0 -10 7 -6 7 5 11 -2 12 -18 2 -44 5 -51 16 -49 12 2 32 -43 39
-87 2 -14 6 -34 8 -45 3 -11 5 -26 5 -33 1 -7 5 -10 11 -7 6 4 10 -7 10 -27 0
-19 6 -42 14 -53 7 -11 14 -23 15 -27 2 -12 41 -49 41 -40 0 4 -5 13 -12 20
-9 9 -9 12 0 12 7 0 17 -11 22 -25 5 -14 14 -25 20 -25 5 0 10 -7 10 -15 0 -9
7 -18 15 -21 8 -4 15 -13 15 -22 0 -8 3 -12 7 -9 3 4 12 2 20 -4 10 -9 13 -8
13 5 0 9 7 16 16 16 9 0 18 9 21 20 3 11 10 20 15 20 6 0 7 7 4 15 -3 9 1 18
10 22 8 3 13 12 10 19 -3 7 -1 16 4 19 5 3 7 12 3 20 -3 8 0 15 6 15 6 0 11
-9 11 -20 0 -11 5 -20 11 -20 6 0 9 14 8 33 -2 19 1 31 8 30 7 -2 11 16 11 47
1 31 7 56 16 65 8 8 18 29 22 47 6 30 7 31 15 11 4 -12 13 -50 19 -85 20 -109
31 -102 25 17 -6 107 -5 109 10 75 9 -19 19 -66 22 -103 6 -69 24 -103 49 -93
7 3 15 0 17 -7 3 -9 8 -8 20 2 11 8 17 9 17 2 0 -6 12 -14 28 -17 15 -4 33
-11 39 -16 7 -6 19 -8 27 -5 7 3 18 1 24 -5 17 -17 34 2 29 31 -14 66 -21 87
-38 104 -12 13 -18 35 -17 68 0 26 -7 62 -16 80 -19 38 -19 39 -5 39 5 0 7 -4
4 -10 -3 -5 -1 -10 4 -10 15 0 14 30 -1 30 -9 1 -8 4 2 13 16 13 18 32 6 92
-11 57 -26 82 -37 64 -8 -11 -13 -10 -27 6 -12 14 -27 19 -49 17 -25 -2 -33 1
-33 13 0 9 -6 26 -14 38 -8 12 -17 44 -21 70 -3 27 -13 51 -21 54 -16 6 -19
59 -4 68 6 3 7 17 4 31 -8 30 6 31 26 3 40 -57 39 -56 40 -19 0 37 -11 62 -26
61 -5 -1 -13 11 -18 26 -5 16 -18 40 -28 56 -12 17 -15 27 -7 27 14 0 5 86
-12 106 -7 9 -8 14 -1 14 5 0 12 18 14 40 2 22 0 40 -4 40 -5 0 -8 8 -8 17 0
15 2 15 14 3 8 -8 17 -40 21 -70 4 -30 9 -57 11 -59 2 -2 -2 -11 -9 -19 -7
-10 -8 -13 -1 -9 12 7 41 -49 31 -59 -3 -3 1 -24 9 -46 7 -22 11 -45 7 -51 -3
-6 -1 -7 6 -3 8 5 10 25 6 64 -4 32 -8 68 -9 82 -1 14 -5 30 -8 35 -2 6 -6 30
-7 54 -1 25 -4 47 -6 50 -1 3 -6 31 -9 61 -3 30 -3 48 0 40 4 -8 12 -28 19
-45 23 -54 35 -97 35 -129 0 -17 9 -47 19 -67 12 -23 18 -51 16 -75 -1 -21 -1
-31 2 -21 3 13 10 16 25 11 19 -6 20 -3 14 27 -15 76 -18 139 -8 139 6 0 14
-9 17 -21 5 -13 10 -18 17 -11 6 6 2 29 -11 63 -12 30 -21 62 -21 72 0 26 19
21 26 -7 3 -14 17 -32 30 -40 15 -11 21 -22 18 -34 -5 -14 -3 -14 10 2 9 11
16 26 16 33 0 7 5 13 10 13 6 0 10 8 11 18 1 9 7 -1 14 -23 10 -32 17 -40 34
-38 11 2 21 -1 21 -6 0 -14 55 -66 70 -66 8 0 17 11 20 24 8 38 29 37 45 -3 8
-20 15 -39 14 -43 -2 -16 14 -53 22 -53 5 0 9 10 10 23 0 15 3 17 6 7 4 -8 21
-30 39 -50 20 -21 36 -49 39 -73 4 -23 20 -52 41 -75 19 -20 42 -53 51 -72 10
-19 23 -39 29 -45 7 -5 15 -19 17 -30 3 -11 5 -2 5 20 -1 47 11 97 22 90 4 -2
13 -32 21 -65 12 -56 21 -71 32 -52 2 4 2 2 1 -5 -2 -6 0 -14 4 -16 4 -2 1 -2
-5 -1 -7 2 -13 -2 -13 -9 0 -19 24 -67 33 -67 4 0 3 -9 -3 -20 -7 -14 -7 -20
0 -20 5 0 10 -16 10 -36 0 -19 -4 -33 -9 -29 -5 3 -12 -4 -16 -15 -10 -32 -25
-23 -25 15 0 40 -28 117 -40 110 -5 -3 -10 0 -12 7 -3 7 -7 5 -11 -6 -4 -9 -3
-15 2 -12 5 3 11 -7 14 -22 12 -55 34 -137 41 -154 4 -10 6 -23 3 -30 -4 -8
-6 -6 -6 5 -1 9 -6 17 -12 17 -8 0 -9 -11 -5 -31 3 -17 6 -47 6 -65 0 -19 5
-34 10 -34 6 0 10 11 10 24 0 14 4 27 9 31 6 3 9 30 7 60 -3 53 6 71 18 39 3
-9 6 -45 6 -81 0 -62 -1 -65 -28 -75 -24 -9 -27 -15 -24 -41 7 -46 -22 -29
-30 19 -4 21 -14 71 -22 109 -8 39 -22 110 -31 159 -9 49 -23 99 -30 110 -8
12 -13 33 -11 48 2 15 0 25 -4 23 -12 -7 -33 52 -24 66 5 9 2 10 -10 6 -16 -6
-18 -4 -42 63 -4 13 -7 12 -15 -3 -7 -12 -7 -29 1 -53 7 -20 10 -46 7 -59 -2
-14 -1 -22 4 -20 13 8 19 -25 21 -122 3 -81 1 -94 -16 -106 -14 -10 -17 -21
-12 -41 7 -27 26 -27 26 1 0 9 6 13 14 10 8 -3 17 -1 20 6 4 7 4 0 2 -15 -2
-16 1 -28 7 -28 5 0 7 -13 4 -30 -4 -16 -2 -32 3 -35 4 -3 12 -20 16 -37 3
-18 13 -42 20 -53 20 -31 25 -140 8 -224 -7 -42 -14 -92 -14 -111 -1 -19 -7
-46 -15 -60 -8 -14 -14 -37 -15 -52 0 -32 -16 -37 -25 -10 -3 11 -17 24 -31
30 -20 10 -26 9 -30 -3 -8 -20 -24 -9 -24 16 0 37 -42 11 -54 -34 -7 -30 -22
-34 -52 -13 -12 8 -30 15 -40 15 -10 -1 -64 4 -119 10 -124 13 -275 14 -275 2
0 -5 -18 -17 -40 -27 -22 -10 -40 -20 -40 -24 0 -3 -14 -20 -30 -39 -24 -26
-34 -30 -44 -21 -9 7 -17 7 -20 1 -3 -5 -15 -7 -26 -4 -14 4 -20 0 -20 -10 0
-31 13 -47 36 -47 13 0 24 -5 24 -11 0 -6 8 -8 19 -4 10 3 25 3 34 -1 13 -5
14 -9 4 -27 -7 -12 -21 -30 -31 -40 -12 -10 -16 -21 -10 -26 11 -12 86 -17
100 -8 6 3 14 4 18 0 11 -12 6 -23 -11 -23 -17 -1 -17 -1 0 -14 9 -7 17 -18
17 -23 0 -6 9 -13 20 -16 11 -3 20 -1 20 4 0 5 11 9 25 9 15 0 25 -6 25 -15 0
-11 10 -14 39 -12 22 1 43 6 47 10 4 4 22 4 41 1 50 -10 143 14 253 64 55 26
83 29 195 23 98 -5 134 -1 139 18 2 9 9 37 16 63 7 26 21 55 31 64 18 16 19
16 26 -17 4 -19 7 -42 7 -51 -2 -28 14 -10 22 25 3 17 15 42 24 54 l18 23 6
-23 c9 -35 7 -67 -5 -67 -8 0 -9 -4 0 -13 6 -8 9 -16 7 -18 -2 -2 -6 -21 -9
-41 -5 -32 -3 -38 12 -38 10 0 24 -12 31 -27 21 -42 51 -63 72 -52 10 5 18 7
18 3 0 -4 9 1 20 11 18 16 20 16 20 2 0 -33 18 -16 34 32 9 28 16 56 16 64 0
7 12 42 26 77 23 58 26 80 29 220 4 164 -1 220 -17 220 -6 0 -8 -6 -5 -14 3
-7 1 -18 -4 -23 -5 -5 -11 -53 -13 -107 -2 -74 -7 -101 -20 -114 -15 -16 -16
-10 -15 88 2 134 -13 287 -24 248 -4 -16 -12 -28 -17 -28 -6 0 -10 -9 -10 -19
0 -11 -5 -23 -11 -26 -13 -9 -1 67 13 76 14 9 22 79 9 79 -6 0 -11 -16 -11
-35 0 -35 -19 -51 -21 -17 -3 98 -9 172 -19 231 -14 77 -10 101 18 101 16 0
19 -7 17 -39 -2 -30 1 -38 11 -34 8 3 14 9 14 15 0 5 7 16 15 24 13 13 14 9
11 -35 -4 -61 7 -117 22 -114 7 2 12 -7 13 -20 l0 -22 9 23 c8 20 13 21 31 12
19 -11 20 -10 14 10 -5 16 -3 21 6 18 8 -3 14 -10 14 -16 0 -6 6 -17 13 -24
11 -11 12 -10 7 3 -4 10 -2 20 4 23 5 3 15 -10 21 -29 6 -19 16 -33 20 -30 5
3 6 13 3 23 -4 13 -3 14 6 6 6 -6 13 -25 14 -42 1 -18 6 -32 10 -32 15 0 32
-24 34 -48 2 -12 19 -38 38 -58 20 -19 33 -39 30 -44 -3 -6 6 -22 20 -37 14
-16 34 -45 44 -65 10 -21 21 -35 24 -32 3 3 8 -5 12 -17 7 -23 15 -34 47 -69
9 -10 23 -37 31 -60 7 -23 22 -51 33 -63 14 -17 18 -37 18 -84 -1 -47 3 -63
13 -63 7 0 13 -10 13 -24 0 -13 9 -35 21 -50 11 -14 17 -26 14 -26 -4 0 -3 -6
3 -13 7 -8 8 -26 3 -50 -5 -20 -6 -35 -2 -32 4 2 7 -16 6 -40 -2 -33 1 -42 11
-38 8 3 14 13 14 22 1 14 2 14 11 -2 5 -9 7 -22 4 -27 -3 -5 0 -20 7 -32 13
-23 18 -63 21 -153 1 -27 6 -53 12 -57 7 -6 6 -10 -1 -15 -12 -8 -20 -44 -30
-133 -6 -61 -33 -162 -44 -170 -3 -3 -15 -21 -25 -40 -10 -19 -27 -53 -38 -74
-12 -22 -23 -34 -25 -27 -3 9 -7 9 -18 0 -18 -15 -18 -30 -1 -23 8 3 20 -2 27
-12 12 -14 12 -17 -3 -25 -26 -15 -21 -32 8 -25 14 4 25 2 25 -3 0 -6 8 -7 17
-4 13 5 15 2 10 -11 -4 -10 -7 -24 -7 -32 0 -9 -4 -13 -9 -9 -5 3 -12 1 -15
-4 -3 -5 1 -12 10 -15 9 -3 15 -16 14 -28 -3 -36 0 -44 10 -28 5 8 12 11 16 7
9 -9 -16 -38 -27 -31 -5 3 -9 2 -8 -3 4 -18 -17 -50 -63 -96 -66 -65 -71 -79
-57 -127 8 -27 18 -40 28 -39 9 1 24 -2 34 -6 31 -13 61 -11 74 5 11 13 12 12
13 -8 0 -19 4 -22 20 -17 15 5 20 2 20 -12 1 -11 11 -1 28 27 20 33 28 40 30
27 4 -18 4 -18 17 0 7 10 10 20 5 23 -5 3 -2 13 5 24 13 17 14 17 11 -6 -1
-13 -5 -28 -8 -33 -3 -6 -5 -39 -4 -74 2 -49 6 -67 22 -80 20 -17 29 -55 18
-81 -4 -8 -8 -35 -9 -60 0 -25 -4 -55 -9 -67 -10 -32 11 -30 46 4 25 24 28 25
28 7 0 -11 9 -37 20 -59 11 -22 20 -49 20 -60 0 -11 6 -29 14 -40 9 -13 15
-65 19 -155 5 -140 46 -402 72 -464 8 -20 15 -45 15 -56 0 -12 11 -45 24 -73
66 -143 80 -173 82 -184 6 -30 49 -103 61 -103 8 0 13 -13 13 -39 0 -22 8 -48
19 -62 10 -13 21 -34 25 -46 4 -13 11 -23 15 -23 5 0 14 -13 21 -30 13 -32 25
-38 33 -17 3 6 6 2 6 -9 1 -23 24 -48 34 -37 4 3 7 -3 7 -15 0 -13 6 -22 16
-22 8 0 13 -4 9 -10 -8 -13 65 -79 88 -80 10 0 16 -4 13 -9 -3 -4 4 -17 16
-27 20 -19 21 -19 14 3 -6 20 -5 21 29 13 32 -7 37 -6 45 13 5 12 9 16 9 10 1
-7 9 -13 19 -13 14 0 12 -4 -8 -20 -20 -16 -22 -20 -7 -20 16 0 18 -4 21 -40
1 -9 10 -14 24 -13 23 3 31 -12 10 -20 -7 -2 6 -6 30 -8 30 -3 42 -1 42 8 0 7
9 13 19 13 20 0 35 25 25 41 -3 5 -2 9 3 9 13 0 30 -14 36 -30 4 -10 6 -8 6 8
1 13 -5 22 -14 22 -8 0 -15 5 -15 10 0 6 6 10 14 10 7 0 17 10 20 22 6 21 7
21 17 6 5 -10 16 -18 23 -18 8 0 16 -7 20 -15 3 -8 12 -15 21 -15 8 0 15 -5
15 -11 0 -6 -7 -8 -17 -5 -9 4 -20 1 -24 -5 -4 -6 -12 -8 -19 -4 -9 6 -9 9 -1
15 9 5 8 10 -2 19 -23 19 -18 -35 8 -88 12 -25 25 -53 29 -61 3 -8 3 -1 0 16
-5 32 18 66 31 44 3 -5 1 -10 -5 -10 -6 0 -8 -5 -5 -10 9 -15 25 -12 25 5 0 8
9 15 19 15 17 0 18 -3 9 -28 -12 -32 -2 -95 12 -73 4 8 14 10 21 7 8 -4 3 2
-10 13 -21 19 -21 22 -6 28 31 11 50 -10 48 -53 -4 -61 -7 -72 -18 -68 -5 2
-15 -7 -22 -21 -10 -23 -10 -25 13 -19 16 4 24 2 24 -6 0 -8 12 -10 38 -6 35
5 35 5 12 -7 -42 -20 -74 -57 -61 -70 9 -9 14 -8 20 2 6 9 10 6 15 -13 5 -21
13 -26 35 -26 16 0 32 6 34 13 3 6 6 -6 8 -28 1 -31 3 -34 6 -12 2 15 9 27 14
27 5 0 7 -11 3 -25 -5 -19 -2 -27 12 -32 11 -4 26 -14 34 -23 8 -9 22 -19 30
-23 12 -4 11 -6 -2 -6 -10 -1 -18 -5 -18 -10 0 -12 25 -21 63 -22 18 -1 24 -3
15 -6 -19 -5 -25 -33 -7 -33 5 0 7 6 3 12 -6 10 -4 10 8 0 9 -7 19 -23 22 -36
4 -15 17 -28 35 -34 16 -6 32 -19 35 -30 8 -25 53 -35 59 -13 3 9 5 4 6 -11 0
-16 6 -28 11 -28 6 0 9 -6 8 -12 -2 -7 6 -14 17 -14 11 -1 22 -3 25 -3 3 -1
23 -3 46 -5 22 -1 57 -12 77 -23 20 -12 57 -25 82 -29 32 -4 43 -9 34 -15 -10
-6 -8 -9 7 -9 12 0 24 -6 27 -13 2 -7 40 -19 83 -27 91 -16 114 -31 95 -62
-14 -22 -8 -32 17 -34 48 -3 52 -5 52 -27 0 -30 -25 -44 -93 -52 -32 -4 -57
-12 -57 -19 0 -20 38 -74 58 -80 25 -8 65 -63 56 -78 -5 -7 -11 -5 -21 7 -26
37 -15 -27 12 -67 14 -21 31 -50 37 -65 l12 -28 4 32 c2 19 -3 42 -12 55 -21
30 -21 69 -1 62 13 -5 15 449 15 4055 l0 4061 -4175 0 -4175 0 0 -2829z m2540
1550 c0 -14 -19 -35 -26 -28 -9 9 -44 -22 -44 -40 0 -7 -4 -13 -10 -13 -5 0
-27 -22 -49 -50 -60 -76 -58 -36 2 56 35 52 61 80 77 84 26 7 50 3 50 -9z
m2200 -46 c5 -3 11 -1 15 5 9 15 61 12 75 -5 9 -10 9 -15 1 -15 -6 0 -11 -5
-11 -11 0 -5 5 -7 12 -3 8 5 9 1 5 -12 -6 -17 -5 -17 11 2 13 16 26 20 45 17
15 -3 30 -10 33 -15 3 -5 12 -4 20 3 10 8 18 9 25 2 14 -14 -7 -67 -23 -57 -7
5 -26 7 -43 6 -16 -2 -41 3 -54 10 -17 9 -25 10 -28 2 -3 -8 -13 -8 -38 0 -19
7 -38 15 -41 19 -4 4 -16 7 -26 7 -22 0 -48 22 -48 41 0 9 -4 8 -15 -1 -12
-10 -15 -10 -15 3 0 13 9 15 46 12 25 -3 50 -7 54 -10z m1022 -17 c-7 -7 -12
-8 -12 -2 0 14 12 26 19 19 2 -3 -1 -11 -7 -17z m-722 -23 c0 -12 -19 -12 -23
0 -4 9 -1 12 9 8 7 -3 14 -7 14 -8z m830 -448 c0 -6 11 -25 26 -44 24 -32 24
-33 5 -33 -12 0 -21 7 -21 15 0 8 -5 15 -11 15 -19 0 -38 33 -39 64 0 28 0 29
20 11 11 -10 20 -23 20 -28z m150 -2 c7 -9 8 -15 2 -15 -5 0 -12 7 -16 15 -3
8 -4 15 -2 15 2 0 9 -7 16 -15z m-3795 -92 c-9 -15 -14 -20 -11 -10 4 11 9 31
13 45 5 19 8 22 11 10 2 -9 -4 -29 -13 -45z m3485 22 c11 -13 10 -14 -4 -9 -9
3 -16 10 -16 15 0 13 6 11 20 -6z m385 -5 c3 -5 1 -10 -4 -10 -6 0 -11 5 -11
10 0 6 2 10 4 10 3 0 8 -4 11 -10z m65 -5 c0 -8 4 -15 10 -15 5 0 12 -11 16
-25 3 -14 9 -25 13 -25 14 0 31 24 32 45 1 15 2 16 6 3 6 -22 33 -32 33 -12 0
8 4 13 8 10 5 -3 7 -18 5 -33 -3 -20 2 -34 18 -48 12 -11 19 -14 15 -7 -4 6
-3 12 2 12 5 0 17 -16 28 -35 10 -19 22 -35 26 -35 5 0 8 -9 8 -20 0 -10 16
-35 36 -54 21 -20 31 -37 25 -41 -18 -11 -12 -47 8 -52 23 -6 33 -26 25 -48
-5 -13 -9 -13 -22 -3 -20 17 -87 121 -84 131 1 4 -2 7 -8 7 -6 0 -10 9 -10 20
0 22 -36 79 -57 93 -7 4 -13 15 -13 23 0 8 -4 12 -10 9 -5 -3 -10 -18 -10 -32
0 -24 -13 -25 -16 -2 -1 5 -2 15 -3 22 -1 7 -7 5 -16 -6 -13 -18 -14 -18 -26
5 -14 27 -70 78 -79 73 -15 -9 -5 31 9 42 22 17 31 16 31 -2z m-1062 -20 c6
-14 16 -25 21 -25 5 0 12 -11 15 -24 4 -17 15 -26 36 -31 23 -5 29 -11 25 -24
-3 -10 3 -29 13 -42 12 -14 17 -31 13 -42 -6 -16 -9 -15 -33 10 -15 15 -30 40
-33 56 -4 15 -11 27 -16 27 -5 0 -9 7 -9 15 0 8 -5 15 -11 15 -5 0 -7 4 -4 10
3 5 -4 21 -17 34 -25 25 -33 46 -20 46 5 0 14 -11 20 -25z m658 -9 c17 -18 19
-30 2 -20 -8 5 -9 2 -4 -11 5 -14 4 -16 -8 -6 -17 14 -28 51 -14 51 5 0 16 -6
24 -14z m694 -23 c0 -9 6 -13 14 -10 17 7 36 -11 36 -34 0 -10 5 -19 11 -21 6
-2 9 -20 7 -43 l-4 -40 -8 32 c-5 18 -12 31 -16 28 -4 -2 -19 18 -34 46 -27
53 -33 74 -16 64 6 -3 10 -13 10 -22z m-509 4 c-1 -12 -15 -9 -19 4 -3 6 1 10
8 8 6 -3 11 -8 11 -12z m1276 -57 c12 -28 27 -50 33 -50 5 0 10 -7 10 -15 0
-7 7 -18 16 -23 12 -6 15 -18 12 -35 -3 -15 -1 -24 3 -21 5 3 13 -6 19 -20 5
-14 14 -26 19 -26 5 0 11 -12 13 -27 2 -16 8 -27 16 -25 7 1 12 -9 12 -28 0
-20 5 -30 15 -30 8 0 15 -9 15 -20 0 -11 4 -19 10 -17 5 1 21 -11 36 -28 18
-22 24 -24 19 -10 -4 11 -9 38 -12 60 -3 22 -10 46 -16 53 -7 8 -5 12 5 12 8
0 23 -19 32 -42 24 -57 31 -33 12 33 -23 77 -20 88 13 49 16 -19 26 -37 22
-40 -5 -3 -2 -18 5 -35 10 -22 13 -25 14 -11 0 20 0 20 15 0 14 -17 15 -15 10
31 -4 46 -3 48 10 31 8 -11 15 -14 15 -8 0 7 -9 20 -20 29 -11 10 -20 28 -20
41 0 12 -7 25 -16 29 -8 3 -13 12 -10 20 3 8 1 23 -4 34 -6 10 -8 19 -5 19 27
0 120 -185 113 -225 -3 -13 -1 -22 3 -19 5 3 9 0 9 -5 0 -6 -4 -11 -8 -11 -11
0 -2 -61 11 -78 13 -17 37 -129 35 -172 0 -23 -2 -27 -5 -12 -2 12 -8 22 -13
22 -5 0 -12 17 -16 38 -4 20 -11 42 -16 48 -5 7 -8 16 -7 20 1 5 0 12 -1 17
-4 12 -7 26 -9 37 0 6 -5 10 -11 10 -5 0 -10 -18 -10 -39 0 -55 -14 -58 -26
-5 -6 24 -7 44 -2 44 4 0 3 9 -4 19 -16 26 -26 18 -22 -16 2 -16 1 -21 -2 -13
-14 37 -28 60 -36 60 -12 0 -1 -122 11 -130 5 -3 12 -17 16 -32 4 -15 13 -32
21 -39 8 -6 14 -17 14 -23 0 -6 -5 -4 -10 4 -11 17 -13 12 -14 -52 -1 -50 -16
-70 -23 -30 -5 36 -43 104 -73 134 -32 30 -47 67 -32 77 6 4 6 15 -1 31 -8 20
-11 22 -14 8 -3 -10 -7 -18 -9 -18 -11 0 -33 28 -27 34 4 3 -9 21 -27 39 -21
20 -31 25 -27 14 4 -10 3 -16 -2 -12 -6 3 -10 13 -10 23 0 46 -15 113 -27 123
-8 6 -14 20 -14 30 0 11 -7 19 -15 19 -18 0 -17 -3 -6 38 8 25 7 32 -4 32 -8
0 -12 -6 -9 -13 3 -8 -2 -14 -11 -14 -17 0 -17 10 0 63 5 15 0 28 -15 42 -13
12 -20 27 -17 36 10 27 21 18 44 -34z m-2257 -12 c6 -29 15 -55 20 -58 14 -9
1 -67 -15 -67 -7 0 -11 5 -9 11 3 7 -4 38 -15 69 -18 55 -18 97 -1 97 5 0 13
-23 20 -52z m835 46 c19 -8 50 -63 46 -83 -2 -9 3 -12 13 -8 11 4 16 1 16 -12
0 -10 7 -21 15 -25 8 -3 15 -12 15 -21 0 -8 5 -14 12 -12 7 1 14 -10 17 -25 3
-15 15 -38 26 -50 23 -27 58 -88 53 -94 -4 -3 -23 15 -77 74 -17 17 -35 32
-41 32 -6 0 -17 15 -25 33 -7 18 -23 41 -34 51 -12 11 -21 29 -21 40 0 12 -6
30 -14 41 -15 22 -30 65 -22 65 2 0 12 -3 21 -6z m-2554 -21 c13 -16 12 -17
-3 -4 -10 7 -18 15 -18 17 0 8 8 3 21 -13z m793 -35 c9 -17 16 -51 16 -75 0
-26 6 -51 15 -59 9 -9 15 -11 15 -4 0 6 5 8 10 5 6 -3 10 0 11 7 0 9 2 10 5 1
3 -7 12 -9 21 -6 13 5 15 2 11 -15 -4 -12 -2 -25 4 -28 5 -3 7 -12 4 -20 -3
-8 1 -14 9 -14 8 0 15 -5 15 -11 0 -5 -6 -7 -12 -3 -9 5 -9 3 1 -9 7 -9 11
-26 8 -36 -3 -13 0 -18 8 -15 14 6 29 -23 15 -31 -5 -3 -5 -18 0 -35 5 -18 5
-30 -1 -30 -5 0 -9 12 -9 26 0 22 -2 25 -15 14 -10 -9 -15 -9 -15 -1 0 6 -4
11 -10 11 -13 0 -13 -57 0 -62 6 -2 5 -18 -3 -43 -9 -30 -16 -40 -30 -37 -10
2 -25 -2 -34 -10 -15 -11 -16 -11 -9 7 12 33 17 85 7 85 -5 0 -15 -25 -22 -55
-8 -38 -17 -55 -28 -56 -9 0 -24 -2 -33 -4 -13 -2 -18 3 -18 21 0 13 -4 24
-10 24 -13 0 -13 -7 5 -55 19 -53 20 -92 2 -76 -8 6 -17 7 -22 3 -4 -4 -4 3
-1 16 8 23 -8 32 -17 10 -3 -7 -8 2 -12 19 -4 18 -14 38 -23 45 -13 11 -15 10
-8 -12 16 -57 19 -90 7 -90 -13 0 -17 9 -27 55 -17 85 -22 131 -29 253 -7 120
-6 132 9 132 10 0 14 5 11 10 -9 14 19 12 33 -2 9 -9 12 -8 12 4 0 9 7 19 16
22 18 7 64 -3 64 -13 0 -4 9 -7 20 -8 14 -1 20 4 20 18 0 10 5 19 11 19 8 0 8
4 2 13 -6 6 -10 19 -10 27 0 8 -3 34 -7 58 -9 50 -3 54 18 10z m-1278 -12 c3
-8 4 -22 2 -31 -2 -12 -7 -7 -15 14 -6 18 -7 31 -2 31 5 0 12 -6 15 -14z
m4762 -8 c-5 -15 -23 -11 -26 6 -2 11 2 14 13 10 9 -4 14 -11 13 -16z m-2617
-28 c5 0 9 -5 9 -11 0 -5 -4 -7 -10 -4 -5 3 -10 1 -10 -4 0 -6 10 -11 23 -11
18 0 19 -2 7 -10 -8 -5 -10 -10 -4 -10 7 0 9 -11 6 -26 -8 -42 -30 -8 -36 56
-3 30 -3 47 0 38 3 -10 10 -18 15 -18z m2182 10 c9 -11 13 -20 7 -20 -5 0 -14
9 -20 20 -6 11 -9 20 -8 20 2 0 11 -9 21 -20z m-3972 -2 c0 -7 2 -23 3 -36 3
-30 -10 -15 -18 21 -4 16 -2 27 4 27 5 0 10 -6 11 -12z m2529 -24 c0 -14 4
-23 9 -19 10 5 37 -33 34 -46 -1 -4 7 -15 17 -24 11 -10 20 -23 20 -29 1 -6
18 -23 39 -38 29 -19 42 -23 50 -15 8 8 11 6 11 -6 0 -9 5 -17 11 -17 6 0 8
-7 5 -16 -3 -8 -2 -12 4 -9 5 3 12 -6 16 -20 3 -14 10 -25 14 -25 13 0 32 29
25 40 -3 5 -1 10 5 10 6 0 20 -20 31 -45 11 -24 24 -47 29 -50 6 -3 10 -17 10
-31 0 -19 -5 -25 -17 -22 -10 2 -17 11 -17 20 1 9 -6 18 -15 21 -14 3 -17 -3
-15 -37 2 -30 6 -41 17 -40 10 1 13 -4 10 -14 -5 -12 -1 -14 15 -10 21 6 48
-13 36 -25 -3 -3 4 -17 17 -31 13 -13 32 -36 42 -51 11 -14 21 -24 24 -21 3 3
1 11 -4 18 -14 17 -10 61 5 66 7 2 12 -6 12 -19 0 -22 1 -22 14 -4 13 18 15
18 40 2 14 -10 26 -13 26 -8 0 5 -4 11 -8 13 -5 2 -5 14 -2 28 5 21 9 15 27
-40 15 -51 27 -70 53 -88 19 -12 40 -36 49 -54 13 -26 16 -28 21 -13 4 12 9
15 13 8 4 -6 5 -18 1 -26 -3 -8 6 -27 20 -42 27 -29 37 -81 14 -72 -50 20 -51
20 -43 6 5 -7 8 -26 7 -42 -2 -17 2 -26 8 -22 6 4 10 -9 10 -34 0 -23 -5 -41
-11 -41 -6 0 -9 -16 -7 -40 4 -47 -13 -58 -23 -15 -9 37 -39 124 -51 148 -5
10 -6 27 -3 38 4 10 3 29 -1 41 l-7 23 -8 -23 c-5 -12 -5 -30 -2 -39 5 -11 3
-14 -6 -8 -9 5 -12 2 -8 -11 14 -52 17 -74 8 -74 -5 0 -9 -19 -8 -42 1 -24 -4
-43 -10 -45 -8 -3 -10 5 -7 22 3 15 1 32 -4 39 -9 11 -22 54 -27 91 -2 11 -10
39 -19 63 -13 36 -13 42 -1 42 8 0 15 7 15 16 0 30 -22 104 -32 104 -5 0 -8
-6 -7 -12 3 -29 -2 -34 -32 -30 -20 3 -34 13 -41 28 -12 26 -28 32 -28 10 0
-17 -35 -15 -57 4 -10 9 -22 17 -28 20 -14 5 -27 20 -49 54 -14 22 -20 26 -27
15 -6 -9 -9 -10 -9 -2 0 6 -10 15 -22 19 -13 3 -36 16 -52 27 -23 16 -30 17
-37 6 -7 -11 -12 -10 -24 9 -9 12 -23 22 -31 22 -8 0 -14 10 -14 24 0 35 -10
55 -24 50 -12 -5 -46 45 -46 68 0 10 3 10 11 -2 9 -12 9 -11 4 5 -4 11 -10 28
-12 38 -3 9 -12 17 -19 17 -8 0 -14 5 -14 10 0 6 11 10 24 10 19 0 23 4 19 20
-4 16 -2 19 12 14 13 -5 15 -14 11 -38 -3 -17 -1 -38 5 -46 9 -12 10 -11 6 7
-3 13 -1 26 4 29 5 3 9 -6 9 -20 0 -27 15 -42 25 -25 5 7 15 3 31 -12 l24 -22
0 29 c0 33 -24 107 -32 99 -2 -3 -11 13 -18 35 -7 23 -23 51 -34 63 -23 24
-35 87 -17 87 6 0 11 -12 11 -26z m910 6 c0 -11 -4 -20 -9 -20 -5 0 -7 9 -4
20 3 11 7 20 9 20 2 0 4 -9 4 -20z m-1040 -49 l-1 -26 -14 25 c-8 14 -14 34
-14 45 0 20 0 20 14 1 8 -11 15 -31 15 -45z m800 5 c0 -3 -6 -6 -13 -6 -15 0
-39 44 -30 54 6 5 43 -36 43 -48z m-2360 30 c0 -3 -4 -8 -10 -11 -5 -3 -10 -1
-10 4 0 6 5 11 10 11 6 0 10 -2 10 -4z m1324 -26 c4 0 4 5 1 10 -3 6 -2 10 3
10 5 0 8 -16 8 -35 -1 -29 -5 -35 -23 -35 -16 0 -23 8 -28 30 -8 38 3 59 20
37 7 -10 15 -17 19 -17z m-1617 -12 c-3 -8 -6 -5 -6 6 -1 11 2 17 5 13 3 -3 4
-12 1 -19z m3500 -28 c5 -19 16 -55 23 -80 8 -25 20 -53 28 -62 8 -10 12 -18
7 -18 -4 0 -3 -6 2 -12 6 -7 13 -26 17 -41 11 -45 -14 -29 -33 22 -10 23 -23
46 -30 51 -8 4 -10 13 -7 19 4 6 2 11 -4 11 -6 0 -8 5 -4 12 5 8 2 9 -9 5 -13
-5 -16 -1 -16 16 1 12 -1 37 -5 56 -7 36 1 79 13 65 4 -5 12 -25 18 -44z m278
-39 c5 -16 3 -22 -5 -19 -12 4 -40 71 -40 98 0 16 33 -42 45 -79z m-2431 41
c2 -4 -5 -9 -17 -9 -17 -2 -19 0 -7 7 18 12 18 12 24 2z m593 -58 c-6 -6 -37
25 -37 37 0 5 9 0 21 -12 11 -11 19 -23 16 -25z m994 23 c25 -34 34 -87 16
-87 -8 0 -18 10 -22 23 -26 87 -24 106 6 64z m-1271 3 c0 -5 -7 -10 -16 -10
-8 0 -12 5 -9 10 3 6 10 10 16 10 5 0 9 -4 9 -10z m1686 -15 c4 -14 4 -29 0
-32 -3 -4 -6 3 -6 15 0 12 -4 22 -10 22 -5 0 -10 5 -10 10 0 21 20 9 26 -15z
m-1645 -18 c-10 -9 -11 -8 -5 6 3 10 9 15 12 12 3 -3 0 -11 -7 -18z m-2234
-19 c-3 -8 -6 -5 -6 6 -1 11 2 17 5 13 3 -3 4 -12 1 -19z m2943 2 c0 -5 -4
-10 -10 -10 -5 0 -10 5 -10 10 0 6 5 10 10 10 6 0 10 -4 10 -10z m-2930 -30
c0 -5 -5 -10 -11 -10 -5 0 -7 5 -4 10 3 6 8 10 11 10 2 0 4 -4 4 -10z m2400
-5 c0 -12 -19 -12 -23 0 -4 9 -1 12 9 8 7 -3 14 -7 14 -8z m890 -52 c25 -38
51 -72 58 -76 6 -4 12 -14 12 -22 0 -22 34 -72 45 -68 6 2 10 -19 10 -49 0
-58 16 -73 34 -30 9 20 9 36 1 58 l-10 29 25 -28 c14 -15 25 -34 25 -41 0 -8
6 -19 14 -25 11 -9 15 -8 20 5 5 14 9 14 23 3 9 -8 19 -14 22 -14 3 0 6 -13 6
-30 1 -16 4 -41 7 -55 14 -53 38 -157 38 -165 0 -4 -9 2 -20 15 -11 13 -20 29
-20 37 0 7 -4 21 -9 31 -5 9 -14 28 -20 42 -11 25 -11 25 -8 -5 3 -16 7 -39
11 -50 7 -18 6 -18 -4 -2 -6 9 -18 17 -25 17 -8 0 -15 6 -15 13 0 14 -57 77
-70 77 -4 0 -10 14 -13 30 -5 21 -12 30 -27 30 -13 0 -20 7 -20 19 0 11 -5 23
-12 27 -8 5 -9 2 -5 -9 8 -20 -4 -22 -22 -4 -10 10 -10 6 -1 -17 6 -16 8 -31
6 -33 -8 -9 -26 8 -26 23 0 9 -5 12 -12 8 -7 -4 -10 -4 -6 1 5 5 -3 23 -17 41
-14 18 -25 37 -25 43 0 6 -5 11 -11 11 -7 0 -9 10 -5 25 4 14 3 25 -2 25 -5 0
-19 23 -31 50 -13 28 -26 48 -30 45 -11 -6 -5 39 7 60 8 16 11 15 25 -6 9 -12
26 -24 37 -26 l21 -3 -21 30 c-12 16 -18 30 -13 30 4 0 28 -30 53 -67z m490
48 c0 -17 -18 -21 -24 -6 -3 9 0 15 9 15 8 0 15 -4 15 -9z m-3230 -66 c0 -17
-2 -17 -10 -5 -5 8 -10 24 -10 35 0 17 2 17 10 5 5 -8 10 -24 10 -35z m-1401
-62 c1 -13 -3 -23 -8 -23 -9 0 -21 60 -20 100 1 20 4 17 14 -15 8 -22 14 -50
14 -62z m3094 91 c3 -3 3 -13 0 -21 -5 -12 -7 -12 -14 -1 -15 23 -4 40 14 22z
m1265 -45 c0 -17 8 -39 16 -48 17 -19 21 -57 7 -65 -5 -3 -11 10 -14 28 -3 19
-13 43 -23 54 -28 33 -27 95 0 73 7 -6 13 -25 14 -42z m-1533 5 c8 -20 13 -40
10 -44 -3 -5 -1 -11 4 -14 16 -10 20 7 11 52 -4 23 -4 42 1 42 10 0 21 -34 23
-79 1 -20 6 -43 11 -50 5 -8 10 -47 11 -85 1 -39 6 -79 10 -89 3 -10 4 -21 0
-24 -3 -4 -6 -1 -6 6 0 6 -9 22 -21 34 -11 12 -23 35 -26 50 -4 22 -8 25 -15
15 -8 -10 -9 -10 -5 2 6 19 -13 150 -29 203 -10 31 5 18 21 -19z m1850 -19
c14 -31 23 -61 19 -67 -4 -7 -10 -5 -16 6 -5 8 -8 18 -8 21 0 3 -6 18 -15 35
-14 27 -20 60 -11 60 3 0 16 -25 31 -55z m-1557 19 c4 2 8 -7 8 -20 1 -13 -2
-24 -6 -24 -10 0 -20 26 -19 48 0 11 2 12 6 4 2 -6 8 -10 11 -8z m1669 -43
c-2 -13 -5 -11 -15 6 -7 12 -9 29 -5 39 5 15 8 14 15 -6 5 -13 7 -31 5 -39z
m-909 14 c-3 -3 -9 2 -12 12 -6 14 -5 15 5 6 7 -7 10 -15 7 -18z m-169 0 c5 2
14 -7 21 -21 9 -15 19 -23 29 -19 16 6 31 -11 31 -37 0 -25 -21 -22 -27 3 -3
11 -11 18 -18 15 -8 -3 -16 2 -19 10 -3 8 -12 14 -20 14 -17 0 -25 19 -18 39
4 11 7 11 10 3 2 -7 7 -10 11 -7z m-3183 -18 c2 -19 -11 -23 -21 -7 -3 6 0 10
7 10 10 0 9 3 -2 11 -12 8 -12 10 -1 7 8 -2 15 -12 17 -21z m3244 3 c0 -5 -4
-10 -10 -10 -5 0 -10 5 -10 10 0 6 5 10 10 10 6 0 10 -4 10 -10z m1216 -80
c10 -38 22 -70 27 -70 4 0 5 -4 2 -10 -3 -5 -3 -15 1 -21 4 -8 9 -7 15 2 10
17 3 -65 -10 -106 -9 -29 -10 -29 -16 -8 -4 13 -11 21 -15 18 -4 -2 -6 6 -5
18 2 13 -3 40 -11 62 -7 21 -10 43 -7 48 3 5 0 13 -7 17 -7 5 -15 33 -18 64
-4 45 -2 56 11 56 10 0 20 -22 33 -70z m-3076 14 c0 -23 -18 -24 -24 -1 -11
41 -7 54 9 33 8 -11 15 -25 15 -32z m2390 -6 c0 -5 -4 -8 -10 -8 -5 0 -10 10
-10 23 0 18 2 19 10 7 5 -8 10 -18 10 -22z m183 -8 c3 -11 1 -20 -4 -20 -5 0
-9 9 -9 20 0 11 2 20 4 20 2 0 6 -9 9 -20z m247 -3 c0 -5 -6 -7 -14 -4 -8 3
-17 1 -20 -6 -2 -7 -5 -5 -5 5 -1 11 6 16 19 15 11 -1 20 -5 20 -10z m-750
-79 c0 -5 -5 -7 -12 -5 -6 1 -16 -13 -21 -30 -11 -36 -22 -43 -23 -15 -1 9 -4
31 -9 47 -7 28 -6 29 7 11 15 -18 15 -18 22 7 3 14 3 34 0 44 -3 10 4 2 15
-17 11 -19 20 -38 21 -42z m780 30 c6 -24 17 -59 25 -78 8 -19 17 -57 20 -85
l6 -50 -22 42 c-12 23 -27 41 -32 40 -12 -2 -35 65 -36 106 -1 15 4 27 10 27
6 0 9 6 6 14 -5 12 0 26 9 26 2 0 8 -19 14 -42z m328 -12 c2 -18 0 -26 -7 -22
-5 4 -7 14 -4 23 4 11 3 14 -5 9 -7 -4 -12 -1 -12 9 0 28 25 10 28 -19z m209
-13 c-3 -10 -5 -2 -5 17 0 19 2 27 5 18 2 -10 2 -26 0 -35z m-362 0 c9 -47 15
-59 25 -43 4 7 6 -8 5 -34 -2 -25 1 -48 5 -51 5 -3 6 -14 3 -24 -3 -10 0 -22
6 -25 5 -4 8 -13 4 -21 -3 -8 0 -15 5 -15 6 0 12 9 14 20 5 31 20 29 24 -2 1
-16 -2 -28 -7 -28 -5 0 -3 -10 5 -22 19 -30 16 -70 -6 -74 -9 -1 -15 3 -13 9
12 41 14 67 5 67 -5 0 -10 -11 -10 -24 0 -14 -4 -28 -10 -31 -5 -3 -10 3 -10
13 0 11 -7 23 -16 26 -14 6 -15 -4 -10 -86 4 -51 9 -119 12 -150 4 -38 2 -58
-5 -58 -6 0 -8 -7 -5 -15 4 -8 2 -15 -4 -15 -5 0 -13 21 -17 48 -8 52 -7 230
1 243 2 4 -1 18 -8 29 -11 17 -11 22 1 29 7 5 11 13 8 17 -10 18 -17 134 -8
134 6 0 6 13 1 33 -18 71 -20 87 -11 87 5 0 12 -17 16 -37z m-528 5 c-3 -8 -6
-5 -6 6 -1 11 2 17 5 13 3 -3 4 -12 1 -19z m-1220 -50 c-3 -7 -5 -2 -5 12 0
14 2 19 5 13 2 -7 2 -19 0 -25z m2117 -14 c8 -31 0 -60 -18 -67 -10 -4 -13
-23 -10 -74 1 -37 1 -57 -2 -43 -2 14 -9 42 -16 62 -9 31 -8 39 6 53 10 10 14
25 11 36 -7 22 2 59 15 59 4 0 11 -12 14 -26z m-2184 -25 c0 -10 -4 -19 -10
-19 -5 0 -10 12 -10 26 0 14 4 23 10 19 6 -3 10 -15 10 -26z m2034 16 c3 -8 1
-15 -4 -15 -6 0 -10 7 -10 15 0 8 2 15 4 15 2 0 6 -7 10 -15z m-2336 -25 c0
-16 -4 -30 -9 -30 -5 0 -9 14 -9 30 0 17 4 30 8 30 5 0 9 -13 10 -30z m70 -53
c26 -56 26 -58 9 -51 -10 3 -12 -5 -9 -32 6 -52 -14 -35 -22 18 -4 24 -8 55
-9 71 -1 15 -8 27 -14 27 -7 0 -13 12 -13 27 0 26 0 26 18 7 9 -10 27 -40 40
-67z m1352 32 c0 -11 7 -22 15 -25 8 -4 12 -10 9 -15 -3 -5 -1 -9 4 -9 12 0
32 -54 32 -84 -1 -12 -12 5 -27 39 -14 33 -31 64 -39 68 -8 4 -14 19 -14 33 0
14 4 22 10 19 6 -3 10 -15 10 -26z m330 -6 c0 -5 -5 -15 -10 -23 -8 -12 -10
-11 -10 8 0 12 5 22 10 22 6 0 10 -3 10 -7z m505 -20 c-3 -48 -5 -53 -15 -53
-15 0 -12 67 3 73 6 3 12 6 13 6 1 1 0 -11 -1 -26z m-945 -14 c0 35 15 -6 17
-47 4 -94 36 -232 58 -248 11 -8 17 -31 19 -72 3 -64 -5 -94 -20 -71 -4 7 -3
14 3 16 8 3 7 15 -3 40 -14 32 -14 36 3 49 15 12 15 13 1 8 -21 -7 -35 19 -44
77 -5 43 -16 80 -49 184 -9 28 -19 61 -21 75 l-6 25 21 -25 c13 -16 21 -20 21
-11z m-1290 -10 c0 -11 -4 -17 -10 -14 -6 3 -7 -1 -4 -9 3 -9 1 -16 -5 -16 -6
0 -11 14 -11 30 0 20 5 30 15 30 8 0 15 -9 15 -21z m2286 -44 c6 -25 8 -45 5
-45 -11 1 -42 80 -36 90 10 16 18 5 31 -45z m-569 -2 c-3 -10 -5 -2 -5 17 0
19 2 27 5 18 2 -10 2 -26 0 -35z m-1797 15 c0 -19 -2 -20 -10 -8 -13 19 -13
30 0 30 6 0 10 -10 10 -22z m1477 -60 c46 -95 57 -119 58 -133 0 -5 3 -14 7
-20 11 -18 19 -112 8 -95 -8 13 -10 12 -11 -5 0 -15 -4 -12 -12 11 -7 17 -20
39 -29 48 -10 10 -18 23 -19 29 0 7 -3 21 -5 32 -3 11 -7 36 -10 55 -3 19 -14
47 -25 62 -11 16 -15 29 -9 33 6 3 10 11 10 16 0 6 -4 8 -9 5 -4 -3 -6 6 -3
19 2 14 5 25 7 25 1 0 20 -37 42 -82z m545 43 c2 -17 1 -28 -4 -25 -8 5 -12
54 -4 54 2 0 6 -13 8 -29z m51 -1 c3 -11 1 -20 -4 -20 -5 0 -9 9 -9 20 0 11 2
20 4 20 2 0 6 -9 9 -20z m-285 -52 c13 -13 16 -66 6 -93 -6 -14 -8 -14 -20 4
-8 11 -11 27 -8 36 4 10 1 21 -7 26 -10 6 -10 9 -2 9 7 0 10 7 7 15 -7 18 7
20 24 3z m-1678 -24 c0 -8 -4 -12 -10 -9 -5 3 -10 13 -10 21 0 8 5 12 10 9 6
-3 10 -13 10 -21z m1460 16 c0 -5 -4 -10 -10 -10 -5 0 -10 5 -10 10 0 6 5 10
10 10 6 0 10 -4 10 -10z m751 -68 c-18 -6 -12 -22 8 -22 26 0 30 -16 25 -105
-4 -93 -14 -112 -29 -59 -6 21 -14 37 -19 36 -5 -2 -13 2 -18 10 -5 8 -7 -2
-3 -27 5 -33 4 -37 -6 -21 -9 14 -9 31 1 73 11 50 10 56 -7 68 -17 13 -17 14
5 33 12 11 22 31 22 46 0 16 4 25 10 21 6 -3 11 2 12 12 1 10 3 0 5 -22 3 -23
0 -41 -6 -43z m-967 -43 c3 -19 7 -58 11 -88 3 -30 13 -79 21 -110 17 -66 17
-71 4 -71 -16 0 -30 46 -34 109 -2 31 -7 72 -10 91 -4 19 -8 49 -10 65 -2 17
-5 35 -6 40 -1 6 -2 15 -1 20 3 18 21 -22 25 -56z m-1255 -1 c-1 -29 1 -86 6
-126 5 -48 4 -80 -3 -95 -6 -12 -13 -29 -16 -37 -3 -8 -5 10 -5 40 0 30 -2 91
-5 135 -3 44 -3 92 0 108 10 46 25 30 23 -25z m1823 27 c3 -14 1 -25 -3 -25
-5 0 -9 11 -9 25 0 14 2 25 4 25 2 0 6 -11 8 -25z m-1773 -82 c-1 -40 -6 -70
-11 -67 -5 3 -6 14 -3 24 3 11 1 37 -5 60 -12 45 -4 93 11 69 5 -8 8 -47 8
-86z m-2469 50 c14 -6 40 -15 58 -18 18 -4 30 -11 26 -16 -3 -5 1 -12 9 -15 8
-3 17 -13 20 -23 2 -10 20 -25 40 -34 20 -10 39 -22 43 -28 3 -6 16 -15 27
-20 59 -26 123 -71 183 -127 76 -73 93 -118 55 -153 -24 -23 -28 -44 -6 -35
10 3 15 -1 15 -13 0 -25 -11 -33 -26 -20 -20 16 -187 17 -207 1 -9 -8 -33 -12
-59 -10 l-43 3 28 26 c36 34 15 45 -45 23 -24 -8 -51 -13 -60 -10 -10 2 -18
-1 -18 -7 0 -6 -9 -1 -20 11 -11 12 -20 26 -20 31 0 17 -60 -9 -73 -33 -13
-23 -59 -32 -50 -9 3 9 0 11 -10 7 -10 -4 -15 0 -14 13 2 13 -4 17 -21 16 -14
-2 -22 2 -21 10 1 6 1 27 0 44 -1 26 -6 34 -26 39 -14 3 -25 9 -25 13 -1 3 -5
26 -10 51 -11 56 5 127 31 141 11 5 19 16 19 23 0 9 8 12 23 9 15 -3 18 -2 9
4 -10 7 -8 14 8 28 11 10 20 22 20 27 0 27 95 87 110 69 3 -3 16 -11 30 -18z
m2568 -51 c2 -34 0 -43 -8 -32 -14 22 -12 80 4 80 1 0 2 -21 4 -48z m1607 18
c-4 -6 0 -22 9 -35 12 -18 16 -49 16 -114 0 -81 -11 -122 -23 -89 -2 7 -4 -3
-4 -22 0 -71 -3 -90 -13 -90 -6 0 -10 17 -9 38 0 20 -3 50 -7 66 -4 17 -2 31
4 35 8 5 9 25 1 71 -13 78 -4 150 17 150 8 0 12 -5 9 -10z m-782 -31 c7 -27
-6 -24 -19 5 -9 19 -9 23 1 19 7 -2 15 -13 18 -24z m125 0 c-3 -8 -7 -3 -11
10 -4 17 -3 21 5 13 5 -5 8 -16 6 -23z m748 -29 c9 0 12 -5 8 -11 -4 -7 -7
-42 -7 -78 1 -57 -1 -61 -8 -31 -9 36 -21 169 -12 138 2 -10 11 -18 19 -18z
m213 -22 c-1 -42 -1 -42 -10 -13 -5 17 -7 36 -4 43 9 24 15 11 14 -30z m-964
-7 c-3 -6 -11 -8 -17 -5 -7 5 -8 2 -2 -7 5 -8 7 -22 6 -31 -2 -10 2 -18 7 -18
6 0 11 -11 11 -24 0 -13 7 -43 15 -66 10 -27 12 -48 6 -58 -8 -14 -11 -11 -17
13 -3 17 -17 53 -29 81 -13 28 -24 61 -26 75 -3 30 10 61 22 53 5 -3 9 0 9 7
0 10 3 10 11 2 6 -6 8 -16 4 -22z m394 -8 c-1 -33 -2 -35 -8 -13 -4 14 -6 31
-3 38 8 22 12 13 11 -25z m-4124 7 c3 -5 1 -10 -4 -10 -6 0 -11 5 -11 10 0 6
2 10 4 10 3 0 8 -4 11 -10z m4341 -17 c0 -10 4 -34 8 -53 6 -24 5 -32 -2 -25
-14 13 -27 95 -15 95 5 0 9 -8 9 -17z m-462 -9 c3 -8 2 -12 -4 -9 -6 3 -10 10
-10 16 0 14 7 11 14 -7z m682 -48 c-3 -17 -8 -49 -11 -71 -2 -22 -8 -62 -14
-90 -8 -41 -7 -53 6 -67 22 -24 14 -171 -11 -196 -15 -16 -16 -15 -12 13 12
76 13 103 2 140 -12 40 -12 40 -14 -35 -2 -64 -4 -95 -11 -177 -2 -27 -18 -11
-20 20 -6 73 7 267 18 281 5 6 11 27 15 46 3 19 3 29 0 22 -3 -6 -10 -10 -15
-6 -13 8 -11 41 3 50 7 4 8 3 4 -4 -4 -7 -3 -12 3 -12 12 0 21 31 24 82 1 20
5 34 10 31 4 -2 7 1 7 7 0 6 5 8 11 4 6 -4 8 -19 5 -38z m-1816 26 c0 -13 -12
-22 -22 -16 -10 6 -1 24 13 24 5 0 9 -4 9 -8z m1409 -62 l12 -35 -21 21 c-13
13 -18 27 -14 38 8 20 8 20 23 -24z m-1416 10 c-3 -11 -10 -23 -16 -27 -7 -4
-8 0 -4 11 4 10 7 22 7 27 0 5 4 9 9 9 5 0 7 -9 4 -20z m2132 -119 c-16 -168
-20 -243 -12 -256 4 -8 4 -23 -2 -33 -5 -9 -11 -33 -13 -52 -6 -43 -18 -71
-28 -65 -4 3 -11 26 -15 52 -4 27 -11 51 -17 54 -7 4 -6 13 1 27 6 11 11 35
11 52 0 17 9 49 21 72 14 28 19 52 16 74 -4 21 -1 34 6 37 13 4 13 6 15 80 2
33 6 46 13 41 8 -5 9 -30 4 -83z m-2801 22 c4 -9 0 -23 -9 -32 -13 -14 -15
-12 -15 17 0 34 14 43 24 15z m2359 -238 c-6 -102 -11 -128 -24 -119 -7 4 -9
24 -6 48 3 22 3 35 0 29 -3 -7 -9 -13 -14 -13 -6 0 -7 26 -3 63 4 34 7 77 8
94 0 18 7 35 14 38 7 3 10 9 7 15 -3 5 -3 16 2 23 12 18 22 -86 16 -178z
m-2616 153 c-2 -7 4 -30 14 -50 29 -56 18 -72 -46 -68 -30 2 -71 19 -48 20 6
0 15 9 18 21 4 13 12 18 21 15 11 -4 13 -2 5 11 -11 21 6 63 26 63 8 0 13 -6
10 -12z m364 -25 c-10 -17 -10 -16 -11 3 0 23 13 41 18 25 2 -6 -1 -18 -7 -28z
m-35 -23 c19 0 18 -15 -2 -35 -14 -13 -19 -14 -26 -3 -6 10 -12 8 -26 -10 -10
-13 -21 -20 -25 -16 -12 12 -8 22 11 28 11 4 25 18 33 32 7 14 15 21 17 15 2
-6 10 -11 18 -11z m-1796 -50 c0 -5 -8 -10 -17 -10 -15 0 -16 2 -3 10 19 12
20 12 20 0z m-30 -29 c0 -10 -30 -24 -37 -17 -3 3 -2 9 2 15 8 13 35 15 35 2z
m315 -32 c5 -13 1 -27 -8 -36 -17 -18 -38 -9 -32 12 3 8 7 22 10 30 6 22 23
18 30 -6z m3730 -168 c-6 -56 -9 -63 -18 -43 -5 12 -16 22 -23 22 -8 0 -4 10
10 25 13 14 24 31 23 38 0 6 1 23 3 37 2 20 3 21 7 6 3 -10 2 -49 -2 -85z m82
2 c-3 -10 -5 -2 -5 17 0 19 2 27 5 18 2 -10 2 -26 0 -35z m81 -12 c-4 -41 -3
-47 9 -36 7 8 13 18 13 23 0 5 7 15 16 22 8 8 14 9 13 4 -3 -19 1 -34 11 -34
6 0 8 12 4 28 -4 18 -3 23 4 14 5 -8 13 -14 18 -13 10 0 10 -14 -1 -71 -5 -27
-4 -38 4 -38 7 0 10 3 7 8 -2 4 2 18 10 32 l15 25 -5 -25 c-13 -66 -48 -186
-56 -194 -6 -6 -18 -2 -30 9 -18 16 -23 17 -30 5 -7 -11 -5 -16 5 -18 8 -2 15
-14 15 -28 0 -13 4 -24 10 -24 10 0 5 -44 -13 -100 -6 -19 -10 -41 -8 -48 1
-8 -2 -19 -8 -25 -5 -7 -12 -37 -16 -66 -6 -57 -88 -250 -115 -271 -3 -3 -16
-22 -29 -43 -13 -21 -26 -36 -28 -33 -3 3 4 18 15 34 19 26 64 133 63 147 -1
3 8 14 19 25 26 26 27 80 3 80 -15 0 -16 -2 -3 -10 8 -5 10 -10 4 -10 -6 0
-11 -10 -10 -22 1 -13 -8 -34 -20 -47 -12 -13 -20 -30 -17 -37 3 -8 0 -14 -7
-14 -6 0 -8 -5 -5 -11 4 -5 0 -18 -8 -27 -21 -24 -59 -111 -52 -121 7 -12 -5
-41 -17 -41 -5 0 -6 5 -2 11 3 6 2 14 -4 18 -8 5 0 29 23 74 19 37 32 67 29
67 -4 0 1 11 10 25 9 14 14 25 11 25 -4 0 0 7 8 14 8 8 23 42 33 75 9 33 21
58 25 55 4 -2 10 0 13 5 4 5 2 12 -4 16 -7 4 -7 13 0 26 6 11 8 24 5 29 -3 6
-1 10 4 10 6 0 11 10 11 23 0 12 3 46 8 75 10 62 5 71 -21 40 l-19 -23 15 27
c9 14 19 57 22 95 4 37 8 79 11 92 4 18 2 22 -10 18 -19 -7 -20 2 -5 40 6 15
17 53 25 83 18 71 22 80 30 80 4 0 4 -22 2 -49z m224 -99 c-20 -51 -32 -68
-39 -61 -12 12 2 69 16 69 11 0 11 44 0 51 -6 3 -9 15 -6 25 4 17 6 17 12 -3
9 -27 24 -30 27 -5 6 61 11 72 15 31 3 -23 -6 -60 -25 -107z m155 116 c-3 -8
-6 -5 -6 6 -1 11 2 17 5 13 3 -3 4 -12 1 -19z m-487 -31 c0 -18 -5 -39 -10
-47 -7 -11 -10 0 -10 38 0 33 4 51 10 47 6 -3 10 -21 10 -38z m-3805 13 c-4
-12 -2 -27 5 -34 19 -24 -7 -106 -34 -106 -8 0 -19 -13 -26 -30 -7 -16 -19
-35 -27 -41 -28 -24 -44 -71 -49 -142 -6 -86 -19 -132 -45 -158 -11 -11 -19
-25 -19 -32 0 -22 -68 -142 -79 -139 -6 1 -12 -4 -13 -10 -2 -16 -5 -46 -7
-73 0 -11 -12 -32 -26 -47 -14 -15 -21 -29 -16 -33 10 -6 4 -56 -8 -65 -9 -7
-41 -75 -41 -89 0 -6 -4 -11 -8 -11 -12 0 -32 -46 -32 -74 0 -29 -31 -31 -42
-3 -5 11 -13 15 -19 11 -9 -5 -10 0 -7 14 4 12 3 22 -1 22 -12 0 -12 53 0 88
8 25 8 37 0 45 -8 8 -11 6 -11 -6 0 -9 -5 -17 -11 -17 -5 0 -7 -4 -4 -10 3 -5
1 -10 -5 -10 -6 0 -8 -4 -5 -10 3 -5 3 -10 -2 -10 -13 0 -8 111 6 154 10 30
11 40 1 46 -9 5 -9 13 -2 27 12 21 5 37 -17 45 -8 2 -15 16 -15 30 -1 19 3 24
14 21 10 -3 9 1 -5 14 -15 14 -20 30 -19 68 0 28 2 52 3 55 7 13 8 69 1 65 -4
-3 -10 4 -13 16 -7 25 16 102 48 168 14 27 25 53 25 58 0 20 72 92 98 97 15 3
61 2 102 -3 42 -5 82 -5 92 0 9 5 35 10 57 11 30 1 42 6 47 20 4 12 11 17 21
14 9 -4 23 3 34 15 22 26 24 36 7 42 -7 2 -6 3 2 2 9 -1 21 4 28 12 18 19 24
16 17 -7z m3698 -67 c-3 -7 0 -13 7 -13 9 0 10 -3 1 -14 -6 -7 -9 -21 -5 -30
3 -9 1 -16 -5 -16 -7 0 -11 22 -11 58 0 37 3 52 9 43 5 -8 7 -20 4 -28z m-415
-43 c-1 -35 -18 -41 -18 -7 0 21 7 37 16 37 1 0 2 -13 2 -30z m499 -2 c-3 -7
-5 -2 -5 12 0 14 2 19 5 13 2 -7 2 -19 0 -25z m303 12 c0 -5 -2 -10 -4 -10 -3
0 -8 5 -11 10 -3 6 -1 10 4 10 6 0 11 -4 11 -10z m-4642 -25 c-3 -3 -9 2 -12
12 -6 14 -5 15 5 6 7 -7 10 -15 7 -18z m4199 -22 c-3 -10 -5 -4 -5 12 0 17 2
24 5 18 2 -7 2 -21 0 -30z m-4161 -9 c8 -32 -9 -65 -43 -81 -40 -19 -43 -17
-43 31 0 51 14 66 72 75 4 0 11 -11 14 -25z m4597 6 c3 -12 0 -20 -8 -20 -8 0
-11 8 -8 20 3 11 7 20 8 20 1 0 5 -9 8 -20z m-763 -5 c0 -8 5 -15 11 -15 6 0
8 -9 4 -21 -4 -12 -8 -28 -9 -35 -1 -7 -5 -17 -9 -20 -11 -11 -8 -42 5 -50 8
-5 9 -2 5 10 -8 20 15 60 28 48 4 -4 5 1 2 10 -3 10 -1 20 5 24 16 10 2 -159
-17 -196 -8 -16 -15 -42 -15 -59 0 -16 -7 -36 -15 -45 -8 -8 -15 -18 -15 -22
0 -4 -7 -12 -16 -19 -10 -7 -17 -27 -18 -52 0 -23 -4 -39 -8 -37 -4 3 -5 -2
-2 -10 5 -13 -9 -47 -58 -137 -18 -35 -78 -102 -84 -96 -3 3 2 21 10 41 13 32
6 61 -9 37 -3 -6 -12 -8 -20 -4 -8 3 -15 0 -15 -6 0 -7 -13 -26 -28 -42 -23
-25 -29 -27 -29 -12 0 10 6 24 14 31 7 7 13 20 13 28 0 21 49 64 66 57 8 -3
14 -12 14 -20 0 -32 25 -4 28 31 3 34 1 36 -21 32 -21 -4 -24 -1 -21 20 1 14
6 30 11 37 18 24 33 67 23 67 -6 0 -10 -7 -10 -15 0 -7 -6 -18 -14 -22 -7 -4
-21 -23 -30 -41 -9 -18 -21 -30 -26 -27 -6 4 -11 1 -11 -4 -1 -6 -3 -15 -4
-21 -1 -5 -3 -14 -4 -19 -2 -18 -53 -71 -62 -65 -5 3 -1 18 10 33 11 15 22 41
25 57 2 16 5 31 5 34 1 3 6 -2 12 -10 8 -12 9 -9 5 11 -4 18 0 31 13 43 11 10
25 32 32 49 7 18 25 45 40 60 15 15 31 41 34 58 4 16 10 29 15 29 4 0 6 10 3
23 -4 20 -3 21 10 5 17 -22 28 -23 21 -3 -9 23 5 65 21 65 15 0 40 45 36 66
-1 7 5 14 14 18 11 4 15 20 15 61 0 30 5 55 10 55 6 0 10 -7 10 -15z m465 -45
c-4 -17 -9 -29 -12 -26 -3 2 -2 19 2 36 4 17 9 29 12 26 3 -2 2 -19 -2 -36z
m-515 -5 c0 -8 -2 -15 -4 -15 -2 0 -6 7 -10 15 -3 8 -1 15 4 15 6 0 10 -7 10
-15z m362 -25 c7 0 8 -15 4 -40 -9 -56 -26 -89 -42 -83 -8 3 -11 9 -8 14 3 5
2 15 -3 22 -10 16 -11 57 -1 57 4 0 8 9 8 21 0 15 4 19 16 15 9 -3 20 -6 26
-6z m-392 -33 c0 -13 -7 -32 -15 -43 -9 -12 -13 -13 -11 -4 2 8 7 27 10 43 8
33 16 35 16 4z m482 -49 c-15 -15 -26 -4 -18 18 5 13 9 15 18 6 9 -9 9 -15 0
-24z m-205 -105 c-2 -27 -8 -56 -12 -66 -6 -13 -3 -16 9 -11 9 3 16 1 16 -5 0
-10 -13 -15 -32 -12 -3 0 -9 -14 -13 -32 -10 -52 -107 -300 -125 -322 -10 -11
-21 -30 -25 -42 -3 -13 -10 -23 -15 -23 -5 0 -10 -9 -12 -20 -2 -13 -7 -17
-16 -11 -11 7 -11 11 2 24 9 8 16 21 16 29 0 20 43 118 52 118 4 0 8 14 8 30
0 17 4 30 8 30 5 0 9 6 9 13 1 6 8 39 18 72 9 33 17 68 17 78 -1 9 3 17 9 17
5 0 9 8 9 18 0 14 -2 15 -10 2 -14 -22 -12 -7 5 34 8 20 15 38 15 41 0 26 0
27 13 16 17 -13 27 -5 27 24 0 19 17 45 28 45 3 0 2 -21 -1 -47z m276 27 c-3
-11 -10 -23 -16 -27 -7 -4 -8 0 -4 11 4 10 7 22 7 27 0 5 4 9 9 9 5 0 7 -9 4
-20z m-863 -21 c0 -10 -4 -21 -10 -24 -5 -3 -10 -16 -10 -28 0 -12 -5 -29 -11
-37 -7 -11 -8 -3 -2 25 4 22 7 49 6 61 0 11 6 21 13 21 8 0 14 -8 14 -18z
m670 -4 c0 -8 -2 -15 -4 -15 -2 0 -6 7 -10 15 -3 8 -1 15 4 15 6 0 10 -7 10
-15z m-56 -46 c-4 -8 1 -9 16 -4 19 6 22 4 17 -10 -4 -9 -7 -21 -7 -26 0 -5
-4 -9 -10 -9 -5 0 -10 6 -10 14 0 8 -5 16 -12 18 -10 4 -4 28 8 28 3 0 2 -5
-2 -11z m16 -75 c0 -8 -5 -12 -10 -9 -6 4 -8 11 -5 16 9 14 15 11 15 -7z m-50
-53 c-10 -19 -4 -31 14 -31 8 0 8 3 0 8 -7 5 -7 14 2 30 8 16 14 20 19 12 4
-7 2 -15 -4 -19 -6 -4 -9 -15 -6 -23 9 -22 -7 -29 -28 -13 -13 9 -16 20 -11
39 3 14 10 23 15 20 5 -3 5 -13 -1 -23z m135 12 c-5 -10 -10 -34 -12 -53 -7
-65 -13 -80 -31 -80 -13 0 -14 2 -3 9 9 6 10 11 3 15 -13 8 26 126 41 126 5 0
6 -8 2 -17z m-274 -86 c-6 -6 -11 -19 -11 -30 0 -10 -4 -15 -10 -12 -6 3 -10
-5 -10 -19 0 -25 -16 -43 -28 -31 -3 3 -1 9 6 14 6 4 13 20 15 37 5 35 26 115
36 129 3 6 7 -10 9 -34 2 -24 -2 -49 -7 -54z m116 11 c-3 -8 -6 -5 -6 6 -1 11
2 17 5 13 3 -3 4 -12 1 -19z m-19 -93 c-6 -14 -13 -24 -14 -22 -6 6 9 47 17
47 5 0 3 -11 -3 -25z m136 10 c-4 -8 -10 -15 -15 -15 -4 0 -6 7 -3 15 4 8 10
15 15 15 4 0 6 -7 3 -15z m-340 -80 c-10 -20 -25 -42 -33 -48 -11 -10 -13 -8
-6 12 21 66 37 93 47 83 8 -8 6 -21 -8 -47z m167 -7 c-19 -28 -21 -29 -15 -8
7 28 25 53 32 46 2 -3 -5 -20 -17 -38z m22 -102 c-10 -31 -21 -56 -25 -56 -7
0 15 91 27 110 16 26 15 -2 -2 -54z m163 27 c-8 -15 -15 -22 -16 -15 0 17 20
55 27 49 2 -3 -2 -18 -11 -34z m-628 -3 c-15 -24 -28 -26 -28 -4 0 8 5 12 10
9 6 -3 10 -1 10 4 0 6 5 11 10 11 6 0 5 -8 -2 -20z m252 4 c0 -3 -5 -14 -10
-25 -16 -28 -32 -23 -18 6 10 22 28 35 28 19z m-4739 -137 c-8 -8 -11 -7 -11
4 0 20 13 34 18 19 3 -7 -1 -17 -7 -23z m-61 13 c0 -5 -4 -10 -10 -10 -5 0
-10 5 -10 10 0 6 5 10 10 10 6 0 10 -4 10 -10z m5186 -27 c-11 -11 -17 4 -9
23 7 18 8 18 11 1 2 -10 1 -21 -2 -24z m-346 23 c0 -3 -4 -8 -10 -11 -5 -3
-10 -1 -10 4 0 6 5 11 10 11 6 0 10 -2 10 -4z m-4850 -50 c0 -4 -9 -6 -20 -3
-13 3 -20 0 -20 -10 0 -8 5 -11 10 -8 11 7 14 -8 4 -18 -9 -9 -44 11 -44 26 0
19 53 48 62 34 4 -7 8 -16 8 -21z m619 8 c-11 -13 -11 -15 2 -14 30 5 38 -1
37 -28 -1 -16 4 -37 9 -47 10 -18 11 -17 24 3 20 32 26 27 34 -28 6 -45 13
-55 37 -51 4 0 4 -7 1 -16 -5 -12 -2 -15 9 -10 12 4 15 -1 14 -19 l-1 -24 -18
25 c-17 22 -46 37 -33 17 8 -13 -11 -35 -31 -37 -25 -3 -56 -17 -66 -29 -5 -7
-6 -4 -3 7 9 27 -26 18 -39 -11 -11 -24 -50 -31 -58 -9 -4 10 -7 10 -18 0 -11
-11 -11 -13 2 -13 10 -1 10 -3 -3 -11 -12 -7 -24 -7 -35 0 -17 10 -16 10 2 11
20 1 20 1 1 15 -14 11 -20 30 -22 72 -4 75 -6 77 -14 23 l-7 -45 -1 46 c-2 33
4 54 18 72 11 14 20 28 20 32 0 14 53 49 78 51 14 2 32 10 41 18 20 21 37 21
20 0z m-690 -53 c-3 -6 -10 -7 -18 -2 -7 5 -10 14 -6 21 9 14 29 -2 24 -19z
m311 5 c0 -2 -7 -9 -15 -16 -12 -10 -15 -10 -15 4 0 9 7 16 15 16 8 0 15 -2
15 -4z m4733 -26 c-6 -23 -31 -46 -40 -36 -3 3 -1 6 5 6 7 0 12 6 12 13 0 11
19 37 26 37 1 0 0 -9 -3 -20z m-4800 -34 c4 -10 1 -13 -9 -9 -15 6 -19 23 -5
23 5 0 11 -7 14 -14z m4847 10 c0 -2 -8 -10 -17 -17 -16 -13 -17 -12 -4 4 13
16 21 21 21 13z m86 -21 c-4 -25 -45 -74 -76 -90 -48 -25 -36 1 26 57 11 9 25
24 32 32 16 20 21 20 18 1z m-4686 -45 c0 -5 -4 -10 -10 -10 -5 0 -10 5 -10
10 0 6 5 10 10 10 6 0 10 -4 10 -10z m4420 -60 c0 -5 -5 -10 -11 -10 -5 0 -7
5 -4 10 3 6 8 10 11 10 2 0 4 -4 4 -10z m-4394 -27 c-10 -10 -19 5 -10 18 6
11 8 11 12 0 2 -7 1 -15 -2 -18z m314 17 c0 -5 -4 -10 -10 -10 -5 0 -10 5 -10
10 0 6 5 10 10 10 6 0 10 -4 10 -10z m-1350 -30 c11 -11 32 -20 48 -21 l27 0
-25 -12 c-24 -10 -23 -11 19 -16 25 -3 46 -11 48 -18 3 -8 -6 -10 -31 -6 -24
4 -36 2 -36 -6 0 -6 10 -10 23 -9 12 2 24 -1 25 -7 2 -5 7 -14 12 -20 5 -6 0
-20 -11 -34 -19 -23 -20 -23 -39 -6 -19 18 -20 17 -20 -3 0 -12 -5 -22 -12
-22 -6 0 -4 -8 6 -19 17 -19 17 -19 -4 -14 -12 3 -26 17 -31 30 -7 19 -14 24
-32 20 -28 -7 -72 26 -63 49 5 13 1 15 -21 10 -27 -7 -27 -6 5 14 28 17 32 25
28 50 -2 17 0 32 5 36 5 3 9 -1 10 -8 0 -10 2 -10 6 0 2 6 11 12 19 12 8 0 14
5 14 10 0 15 8 12 30 -10z m50 0 c0 -5 -5 -10 -11 -10 -5 0 -7 5 -4 10 3 6 8
10 11 10 2 0 4 -4 4 -10z m5289 -72 c-20 -21 -21 -21 -14 -3 4 11 10 28 13 39
4 16 6 16 14 2 6 -11 3 -22 -13 -38z m-5501 -40 c-2 -6 -10 -14 -16 -16 -7 -2
-10 2 -6 12 7 18 28 22 22 4z m1638 -27 c-12 -19 -24 -12 -22 14 1 20 3 22 15
11 7 -8 10 -19 7 -25z m454 27 c15 9 23 7 43 -11 28 -24 118 -182 135 -237 18
-57 42 -211 43 -275 0 -33 4 -81 8 -107 6 -37 5 -48 -6 -48 -7 0 -13 6 -13 13
0 7 -9 18 -20 25 -11 7 -20 18 -20 26 0 8 -21 25 -47 37 -84 40 -93 54 -191
274 -52 116 -56 133 -42 150 7 8 9 26 6 40 -4 15 -2 25 4 25 6 0 10 6 9 13 -8
45 33 96 59 74 10 -8 18 -8 32 1z m-2162 -73 c0 -14 -3 -24 -6 -21 -7 7 -42
-39 -42 -56 0 -17 -45 -17 -62 0 -9 9 -9 12 0 12 7 0 12 8 12 18 0 12 13 23
35 32 20 8 41 20 47 27 14 18 16 17 16 -12z m325 -2 c-7 -2 -19 -2 -25 0 -7 3
-2 5 12 5 14 0 19 -2 13 -5z m-80 -57 c-3 -4 -9 -2 -14 5 -13 22 -11 31 5 17
8 -7 12 -17 9 -22z m-53 -71 c0 -8 -4 -15 -10 -15 -5 0 -10 7 -10 15 0 8 5 15
10 15 6 0 10 -7 10 -15z m-280 -15 c0 -5 -5 -10 -11 -10 -5 0 -7 5 -4 10 3 6
8 10 11 10 2 0 4 -4 4 -10z m265 -10 c3 -5 -1 -10 -9 -10 -8 0 -18 5 -21 10
-3 6 1 10 9 10 8 0 18 -4 21 -10z m5645 2 c0 -15 -28 -47 -35 -40 -8 8 13 48
25 48 6 0 10 -4 10 -8z m-5685 -62 c3 -5 -1 -10 -9 -10 -9 0 -16 5 -16 10 0 6
4 10 9 10 6 0 13 -4 16 -10z m-68 -6 c-3 -3 -12 -4 -19 -1 -8 3 -5 6 6 6 11 1
17 -2 13 -5z m-430 -46 c-3 -7 -5 -2 -5 12 0 14 2 19 5 13 2 -7 2 -19 0 -25z
m30 10 c-3 -8 -6 -5 -6 6 -1 11 2 17 5 13 3 -3 4 -12 1 -19z m33 -18 c0 -52
-14 -52 -17 0 -2 22 2 40 7 40 6 0 10 -18 10 -40z m6051 -21 c-9 -22 -10 -22
-10 -3 -1 11 2 24 6 27 12 12 14 0 4 -24z m-6061 -44 c0 -2 -7 -5 -15 -9 -9
-3 -15 0 -15 9 0 9 6 12 15 9 8 -4 15 -7 15 -9z m7540 -685 c0 -5 -4 -10 -10
-10 -5 0 -10 5 -10 10 0 6 5 10 10 10 6 0 10 -4 10 -10z m-1459 -72 c-9 -20
-10 -18 -10 17 0 31 2 36 9 23 6 -10 7 -25 1 -40z m-27 26 c9 -23 8 -23 -18
-11 -16 8 -21 14 -13 19 18 11 24 10 31 -8z m-4601 -1 c-7 -2 -21 -2 -30 0
-10 3 -4 5 12 5 17 0 24 -2 18 -5z m-185 -21 c2 -7 -7 -12 -22 -12 -27 0 -35
15 -13 23 17 7 30 3 35 -11z m476 -16 c-3 -14 -10 -23 -15 -21 -4 3 -3 17 3
30 14 31 21 26 12 -9z m4496 14 c0 -5 -2 -10 -4 -10 -3 0 -8 5 -11 10 -3 6 -1
10 4 10 6 0 11 -4 11 -10z m-15 -20 c3 -5 -1 -10 -10 -10 -9 0 -13 5 -10 10 3
6 8 10 10 10 2 0 7 -4 10 -10z m-175 -20 c0 -11 -2 -20 -4 -20 -2 0 -6 9 -9
20 -3 11 -1 20 4 20 5 0 9 -9 9 -20z m30 0 c0 -5 -2 -10 -4 -10 -3 0 -8 5 -11
10 -3 6 -1 10 4 10 6 0 11 -4 11 -10z m800 6 c0 -3 -4 -8 -10 -11 -5 -3 -10
-1 -10 4 0 6 5 11 10 11 6 0 10 -2 10 -4z m626 -31 c-3 -8 -1 -15 4 -15 6 0
10 8 10 17 0 14 2 15 13 4 10 -10 8 -15 -7 -27 -16 -11 -22 -11 -28 -1 -11 18
-10 37 3 37 6 0 9 -7 5 -15z m-639 -27 c-3 -8 -6 -5 -6 6 -1 11 2 17 5 13 3
-3 4 -12 1 -19z m-742 -18 c3 -5 1 -10 -4 -10 -6 0 -11 5 -11 10 0 6 2 10 4
10 3 0 8 -4 11 -10z m1315 -14 c0 -8 -4 -18 -10 -21 -5 -3 -10 3 -10 14 0 12
5 21 10 21 6 0 10 -6 10 -14z m-880 -16 c0 -5 -4 -10 -10 -10 -5 0 -10 5 -10
10 0 6 5 10 10 10 6 0 10 -4 10 -10z m376 -17 c-10 -10 -19 5 -10 18 6 11 8
11 12 0 2 -7 1 -15 -2 -18z m-766 -3 c0 -5 -4 -10 -10 -10 -5 0 -10 5 -10 10
0 6 5 10 10 10 6 0 10 -4 10 -10z m1256 2 c16 -10 30 -70 37 -157 2 -24 -2
-31 -20 -33 -25 -4 -32 -32 -8 -32 19 0 19 -9 -2 -32 -13 -14 -13 -18 -2 -18
12 0 12 -2 0 -9 -10 -6 -5 -13 20 -25 18 -9 35 -13 38 -10 3 4 0 9 -7 11 -16
6 -5 23 14 23 9 0 14 -7 12 -17 -2 -11 2 -17 11 -15 44 9 74 -44 31 -55 -23
-6 -27 -23 -5 -23 20 0 19 -20 -2 -36 -10 -7 -14 -16 -10 -20 4 -5 12 -2 17 6
7 11 12 12 21 3 8 -8 6 -13 -10 -18 -19 -6 -26 -23 -22 -48 1 -5 -3 -6 -9 -2
-5 3 -10 15 -10 26 0 25 -20 25 -27 -1 -4 -16 -8 -18 -20 -9 -10 9 -17 9 -25
1 -8 -8 -14 -7 -24 5 -10 14 -14 15 -28 4 -8 -7 -21 -11 -28 -9 -7 3 1 12 20
22 39 20 37 31 -2 16 -15 -5 -39 -10 -54 -9 l-27 1 28 11 c38 15 34 27 -10 26
-50 -2 -123 11 -123 22 0 15 18 19 44 9 38 -14 40 4 2 24 -23 12 -32 23 -29
35 5 18 60 47 82 42 10 -2 12 5 9 24 -6 30 18 47 33 24 7 -11 9 -11 9 4 0 12
-8 17 -27 17 -32 0 -20 14 19 24 20 5 28 2 31 -11 3 -15 6 -13 15 9 6 14 16
29 21 33 18 11 12 25 -10 25 -18 0 -20 4 -14 33 9 42 25 59 26 27 0 -23 1 -23
9 -5 16 36 11 67 -10 72 -11 3 -20 9 -20 14 0 11 21 12 36 1z m77 -12 c3 -11
1 -20 -4 -20 -5 0 -14 -10 -19 -22 -8 -21 -9 -21 -9 -3 -1 28 10 65 19 65 4 0
10 -9 13 -20z m-403 -30 c0 -5 -5 -10 -11 -10 -5 0 -7 5 -4 10 3 6 8 10 11 10
2 0 4 -4 4 -10z m-963 -22 c-3 -8 -6 -5 -6 6 -1 11 2 17 5 13 3 -3 4 -12 1
-19z m808 -8 c0 -15 -43 -22 -51 -8 -9 14 4 25 28 23 13 -1 23 -8 23 -15z
m130 10 c4 -6 14 -8 23 -6 10 3 24 1 32 -4 12 -8 11 -11 -8 -16 -21 -6 -41
-48 -29 -61 4 -3 2 -14 -3 -24 -7 -12 -7 -20 0 -24 5 -3 10 -1 10 5 0 6 5 8
10 5 18 -11 -10 -36 -31 -30 -15 5 -19 1 -19 -15 0 -17 -5 -21 -20 -17 -13 3
-20 0 -20 -9 0 -8 -4 -14 -10 -14 -5 0 -10 -9 -10 -21 0 -11 -4 -17 -10 -14
-5 3 -10 17 -10 31 0 15 -4 23 -10 19 -6 -4 -9 -26 -7 -50 2 -24 0 -42 -5 -39
-4 3 -8 29 -8 57 0 37 -3 48 -10 37 -5 -8 -10 -28 -10 -43 0 -44 -24 -27 -26
18 -1 29 3 39 18 43 27 7 22 20 -6 15 -14 -3 -26 -13 -28 -24 -2 -14 -7 -16
-18 -9 -13 8 -13 13 -2 31 12 18 12 23 0 30 -9 6 -3 10 20 15 23 5 32 12 32
26 0 26 37 60 85 80 48 20 62 22 70 8z m-360 -10 c3 -5 1 -10 -4 -10 -6 0 -11
5 -11 10 0 6 2 10 4 10 3 0 8 -4 11 -10z m-300 -10 c3 -5 1 -10 -4 -10 -6 0
-11 5 -11 10 0 6 2 10 4 10 3 0 8 -4 11 -10z m265 -5 c0 -8 -7 -15 -16 -15
-14 0 -14 3 -4 15 7 8 14 15 16 15 2 0 4 -7 4 -15z m-147 -32 c-3 -18 -9 -30
-14 -28 -4 3 -3 19 3 36 13 37 17 34 11 -8z m1007 17 c0 -5 -2 -10 -4 -10 -3
0 -8 5 -11 10 -3 6 -1 10 4 10 6 0 11 -4 11 -10z m-5512 -17 c6 -19 -25 -16
-32 3 -4 11 -1 14 11 12 9 -2 18 -9 21 -15z m4549 11 c-3 -3 -12 -4 -19 -1 -8
3 -5 6 6 6 11 1 17 -2 13 -5z m150 0 c-3 -3 -12 -4 -19 -1 -8 3 -5 6 6 6 11 1
17 -2 13 -5z m65 -6 c-9 -9 -7 -17 10 -35 33 -35 32 -61 -3 -101 -22 -24 -30
-29 -27 -16 5 25 -36 57 -62 49 -13 -4 -20 -2 -20 7 1 30 23 42 72 39 12 -1
15 -6 11 -18 -6 -15 -5 -16 9 -3 12 12 13 17 2 27 -7 7 -20 13 -28 13 -23 0
-20 17 4 25 11 3 20 11 20 16 0 5 5 9 12 9 9 0 9 -3 0 -12z m114 -3 c6 -20
-24 -47 -45 -40 -26 8 -27 23 -3 41 19 15 44 14 48 -1z m-436 -5 c0 -5 -4 -10
-10 -10 -5 0 -10 5 -10 10 0 6 5 10 10 10 6 0 10 -4 10 -10z m655 2 c12 -8 14
-62 3 -62 -5 0 -8 9 -8 20 0 11 -4 20 -10 20 -5 0 -10 7 -10 15 0 16 9 19 25
7z m400 -21 c-9 -16 -25 -3 -18 15 4 10 9 12 15 6 6 -6 7 -15 3 -21z m-1098
-13 c-3 -8 -6 -5 -6 6 -1 11 2 17 5 13 3 -3 4 -12 1 -19z m293 13 c0 -5 -7
-12 -16 -15 -24 -9 -28 -7 -14 9 14 17 30 20 30 6z m617 -13 c-3 -8 -6 -5 -6
6 -1 11 2 17 5 13 3 -3 4 -12 1 -19z m-870 -20 c-3 -8 -6 -5 -6 6 -1 11 2 17
5 13 3 -3 4 -12 1 -19z m1050 -20 c-3 -8 -6 -5 -6 6 -1 11 2 17 5 13 3 -3 4
-12 1 -19z m-17 2 c0 -5 -2 -10 -4 -10 -3 0 -8 5 -11 10 -3 6 -1 10 4 10 6 0
11 -4 11 -10z m-1240 -4 c0 -11 -19 -15 -25 -6 -3 5 1 10 9 10 9 0 16 -2 16
-4z m1030 -36 c0 -5 -4 -10 -10 -10 -5 0 -10 5 -10 10 0 6 5 10 10 10 6 0 10
-4 10 -10z m255 0 c-3 -5 -11 -10 -16 -10 -6 0 -7 5 -4 10 3 6 11 10 16 10 6
0 7 -4 4 -10z m-868 -6 c-3 -3 -12 -4 -19 -1 -8 3 -5 6 6 6 11 1 17 -2 13 -5z
m889 -20 c-4 -9 -9 -15 -11 -12 -3 3 -3 13 1 22 4 9 9 15 11 12 3 -3 3 -13 -1
-22z m-6876 -14 c0 -5 -4 -10 -10 -10 -5 0 -10 5 -10 10 0 6 5 10 10 10 6 0
10 -4 10 -10z m5767 4 c-3 -3 -12 -4 -19 -1 -8 3 -5 6 6 6 11 1 17 -2 13 -5z
m431 -18 c3 -12 -1 -17 -10 -14 -7 3 -15 13 -16 22 -3 12 1 17 10 14 7 -3 15
-13 16 -22z m-558 4 c0 -5 -5 -10 -11 -10 -5 0 -7 5 -4 10 3 6 8 10 11 10 2 0
4 -4 4 -10z m490 -35 c14 -27 11 -38 -6 -27 -15 9 -28 52 -16 52 5 0 15 -11
22 -25z m26 -2 c-10 -10 -19 5 -10 18 6 11 8 11 12 0 2 -7 1 -15 -2 -18z
m-416 -13 c0 -5 -5 -10 -11 -10 -5 0 -7 5 -4 10 3 6 8 10 11 10 2 0 4 -4 4
-10z m455 1 c6 -11 -29 -34 -38 -25 -6 7 14 33 25 34 4 0 9 -4 13 -9z m-95
-27 c0 -12 -4 -12 -20 -4 -11 6 -18 15 -15 20 8 13 35 0 35 -16z m278 -7 c2
-10 -3 -17 -11 -17 -8 0 -17 -7 -21 -15 -9 -23 -36 -6 -36 24 0 21 2 23 10 11
9 -13 12 -13 21 3 12 21 33 18 37 -6z m-218 -18 c0 -11 -27 -12 -34 0 -3 4 -3
11 0 14 8 8 34 -3 34 -14z m-300 -8 c0 -6 -4 -13 -10 -16 -5 -3 -10 1 -10 9 0
9 5 16 10 16 6 0 10 -4 10 -9z m90 -1 c0 -5 -4 -10 -10 -10 -5 0 -10 5 -10 10
0 6 5 10 10 10 6 0 10 -4 10 -10z m245 0 c3 -5 -1 -10 -9 -10 -9 0 -16 5 -16
10 0 6 4 10 9 10 6 0 13 -4 16 -10z m-285 -14 c0 -3 -4 -8 -10 -11 -5 -3 -10
-1 -10 4 0 6 5 11 10 11 6 0 10 -2 10 -4z m480 -4 c0 -5 -9 -19 -19 -31 l-20
-23 4 29 c2 15 4 29 4 31 2 6 31 1 31 -6z m-460 -27 c0 -8 -2 -15 -4 -15 -2 0
-6 7 -10 15 -3 8 -1 15 4 15 6 0 10 -7 10 -15z m-47 -2 c-7 -2 -19 -2 -25 0
-7 3 -2 5 12 5 14 0 19 -2 13 -5z m307 -13 c0 -5 -4 -10 -10 -10 -5 0 -10 5
-10 10 0 6 5 10 10 10 6 0 10 -4 10 -10z m150 -5 c0 -8 -4 -15 -9 -15 -13 0
-22 16 -14 24 11 11 23 6 23 -9z m-240 -10 c0 -8 -4 -15 -10 -15 -5 0 -10 7
-10 15 0 8 5 15 10 15 6 0 10 -7 10 -15z m45 5 c-3 -5 -10 -10 -16 -10 -5 0
-9 5 -9 10 0 6 7 10 16 10 8 0 12 -4 9 -10z m245 -15 c0 -8 -4 -15 -10 -15 -5
0 -10 7 -10 15 0 8 5 15 10 15 6 0 10 -7 10 -15z m495 -5 c3 -5 -1 -10 -9 -10
-9 0 -16 5 -16 10 0 6 4 10 9 10 6 0 13 -4 16 -10z m-135 -51 c0 -5 -4 -9 -10
-9 -5 0 -10 7 -10 16 0 8 5 12 10 9 6 -3 10 -10 10 -16z m94 -14 c3 -8 1 -15
-4 -15 -6 0 -10 7 -10 15 0 8 2 15 4 15 2 0 6 -7 10 -15z m46 -135 c0 -5 -5
-10 -11 -10 -5 0 -7 5 -4 10 3 6 8 10 11 10 2 0 4 -4 4 -10z m-602 -72 c-6
-18 -28 -21 -28 -4 0 9 7 16 16 16 9 0 14 -5 12 -12z m632 -80 c0 -6 -6 -5
-15 2 -8 7 -15 14 -15 16 0 2 7 1 15 -2 8 -4 15 -11 15 -16z m-226 -4 c10 -27
7 -44 -9 -44 -8 0 -15 -4 -15 -10 0 -15 -37 -12 -43 4 -6 16 16 40 27 29 4 -4
9 3 13 15 6 26 18 29 27 6z m43 -56 c-3 -8 -6 -5 -6 6 -1 11 2 17 5 13 3 -3 4
-12 1 -19z m183 -8 c0 -5 -2 -10 -4 -10 -3 0 -8 5 -11 10 -3 6 -1 10 4 10 6 0
11 -4 11 -10z m-5224 -40 c12 0 12 -4 4 -20 -24 -44 -52 -12 -33 37 7 17 8 17
11 1 2 -10 10 -18 18 -18z m394 16 c0 -3 -4 -8 -10 -11 -5 -3 -10 -1 -10 4 0
6 5 11 10 11 6 0 10 -2 10 -4z m-336 -61 c-19 -29 -40 -34 -24 -6 8 16 19 25
38 30 1 1 -5 -10 -14 -24z m156 11 c0 -1 -15 -15 -32 -32 -18 -16 -24 -19 -14
-7 10 12 16 29 13 36 -4 11 0 13 14 10 10 -3 19 -6 19 -7z m-349 -50 c-7 -12
-22 -28 -34 -35 l-22 -14 20 23 c21 25 4 19 -28 -8 -20 -17 -89 -44 -96 -37
-2 3 1 11 8 18 6 8 9 21 5 30 -3 8 -1 18 5 21 16 10 53 -13 45 -27 -4 -7 1 -5
12 4 10 9 29 20 42 23 12 4 27 17 34 29 8 15 13 18 16 8 2 -7 -1 -23 -7 -35z
m-173 -36 c-7 -11 -16 -20 -20 -20 -13 0 -9 28 5 33 23 10 27 7 15 -13z m5322
-70 c8 13 10 12 10 -2 0 -10 8 -18 18 -18 14 0 15 -2 2 -10 -9 -5 -19 -5 -24
0 -4 4 -14 6 -21 4 -16 -6 -29 12 -19 27 4 8 9 7 15 -2 8 -12 11 -11 19 1z
m-4923 -15 c0 -17 -13 -20 -21 -6 -4 5 0 12 6 14 7 3 13 6 14 6 0 1 1 -6 1
-14z m-1940 -41 c-3 -3 -12 -4 -19 -1 -8 3 -5 6 6 6 11 1 17 -2 13 -5z m2300
-227 c-6 -15 -15 -27 -19 -27 -5 0 -8 -9 -8 -19 0 -11 -4 -23 -10 -26 -5 -3
-10 2 -10 12 0 14 -5 12 -25 -12 -13 -16 -24 -26 -25 -21 0 13 47 66 54 59 3
-3 9 3 12 13 8 21 35 56 41 51 1 -2 -3 -15 -10 -30z m108 -47 c-3 -5 -11 -10
-16 -10 -6 0 -7 5 -4 10 3 6 11 10 16 10 6 0 7 -4 4 -10z m-2475 -66 c0 -8 -4
-12 -10 -9 -5 3 -10 10 -10 16 0 5 5 9 10 9 6 0 10 -7 10 -16z m-52 -22 c-9
-11 -13 -11 -19 0 -7 10 -9 9 -9 -4 0 -11 -8 -18 -20 -18 -24 0 -25 4 -5 23
19 19 68 18 53 -1z m262 -212 c0 -5 -4 -10 -10 -10 -5 0 -10 5 -10 10 0 6 5
10 10 10 6 0 10 -4 10 -10z m2630 -45 c0 -12 -19 -12 -23 0 -4 9 -1 12 9 8 7
-3 14 -7 14 -8z"/>
<path d="M7590 6077 c0 -8 7 -14 15 -14 11 0 12 4 4 14 -6 7 -13 13 -15 13 -2
0 -4 -6 -4 -13z"/>
<path d="M7555 6011 c-19 -8 -19 -8 3 -15 12 -4 22 -14 22 -22 0 -8 4 -13 9
-10 9 6 2 56 -8 55 -3 0 -15 -4 -26 -8z"/>
<path d="M3850 6111 c0 -17 12 -41 21 -41 5 0 9 11 9 25 0 16 -6 25 -15 25 -8
0 -15 -4 -15 -9z"/>
<path d="M4040 6076 c0 -31 6 -34 13 -6 3 11 1 23 -4 26 -5 3 -9 -6 -9 -20z"/>
<path d="M3912 5910 c0 -14 2 -19 5 -12 2 6 2 18 0 25 -3 6 -5 1 -5 -13z"/>
<path d="M5753 6002 c-15 -10 -4 -62 13 -62 18 0 31 30 17 39 -6 3 -12 11 -14
18 -2 7 -9 9 -16 5z"/>
<path d="M5837 5950 c-3 -10 1 -27 8 -37 12 -16 14 -15 13 15 -1 38 -13 51
-21 22z"/>
<path d="M6098 5755 c-5 -21 9 -72 17 -63 3 3 2 23 -3 44 -6 30 -9 34 -14 19z"/>
<path d="M6245 5558 c-5 -13 -3 -24 4 -26 6 -2 11 -13 11 -23 0 -11 5 -17 10
-14 6 4 8 11 5 16 -4 5 -2 9 4 9 13 0 -2 53 -16 57 -6 2 -15 -6 -18 -19z"/>
<path d="M6170 5537 c0 -7 7 -22 15 -33 13 -17 14 -16 4 14 -11 33 -19 41 -19
19z"/>
<path d="M6300 5520 c0 -5 5 -10 10 -10 6 0 10 5 10 10 0 6 -4 10 -10 10 -5 0
-10 -4 -10 -10z"/>
<path d="M6282 5450 c0 -14 2 -19 5 -12 2 6 2 18 0 25 -3 6 -5 1 -5 -13z"/>
<path d="M6457 5893 c16 -45 41 -56 41 -18 0 13 -4 22 -9 20 -4 -3 -10 -1 -14
5 -10 17 -25 11 -18 -7z"/>
<path d="M6620 5702 c0 -21 26 -60 34 -51 8 8 -14 69 -25 69 -5 0 -9 -8 -9
-18z"/>
<path d="M6557 5384 c-11 -11 -8 -26 3 -19 6 3 7 -1 4 -9 -7 -18 11 -22 22 -5
8 13 -19 43 -29 33z"/>
<path d="M2510 5240 c-9 -6 -10 -10 -3 -10 6 0 15 5 18 10 8 12 4 12 -15 0z"/>
<path d="M7331 4794 c0 -11 3 -14 6 -6 3 7 2 16 -1 19 -3 4 -6 -2 -5 -13z"/>
<path d="M7072 4588 c2 -36 -1 -49 -14 -57 -11 -7 -18 -23 -18 -41 0 -27 2
-30 19 -20 28 14 31 13 32 -12 1 -21 2 -20 14 7 18 38 18 55 2 55 -9 0 -12 9
-10 28 3 15 -3 41 -12 57 l-16 30 3 -47z"/>
<path d="M7016 4285 c-3 -9 -6 -22 -5 -28 0 -7 5 -1 10 12 5 13 8 26 5 28 -2
2 -6 -3 -10 -12z"/>
<path d="M6281 4116 c-7 -8 -8 -17 -3 -20 6 -3 12 3 15 14 6 24 4 25 -12 6z"/>
<path d="M646 3085 c4 -8 8 -15 10 -15 2 0 4 7 4 15 0 8 -4 15 -10 15 -5 0 -7
-7 -4 -15z"/>
<path d="M7664 1566 c-24 -18 -16 -26 32 -31 22 -2 30 -2 19 1 -31 9 -42 24
-17 24 12 0 22 5 22 10 0 15 -33 12 -56 -4z"/>
<path d="M7889 1558 c-5 -16 -3 -58 3 -58 4 0 16 10 28 22 15 16 17 24 8 30
-12 7 -37 11 -39 6z"/>
<path d="M7825 1530 c-8 -13 9 -20 24 -11 10 6 9 10 -3 14 -8 3 -18 2 -21 -3z"/>
<path d="M7825 1470 c3 -5 12 -7 20 -3 21 7 19 13 -6 13 -11 0 -18 -4 -14 -10z"/>
<path d="M7896 1465 c-8 -8 -20 -15 -26 -15 -6 0 -8 -4 -5 -10 9 -15 35 -12
35 5 0 7 8 19 18 24 9 6 12 11 5 11 -6 0 -18 -7 -27 -15z"/>
<path d="M7470 1740 c0 -5 5 -10 10 -10 6 0 10 5 10 10 0 6 -4 10 -10 10 -5 0
-10 -4 -10 -10z"/>
<path d="M7308 1703 c7 -3 16 -2 19 1 4 3 -2 6 -13 5 -11 0 -14 -3 -6 -6z"/>
<path d="M4583 6378 c1 -7 -5 -12 -13 -10 -12 2 -11 -1 2 -11 10 -8 24 -29 32
-48 l15 -34 -3 45 c-2 25 -4 51 -5 58 -1 6 -8 12 -16 12 -8 0 -14 -6 -12 -12z"/>
<path d="M4640 6359 c0 -31 23 -134 33 -144 7 -7 8 -4 4 7 -3 10 -2 20 3 23
13 8 13 65 0 65 -5 0 -10 6 -10 13 0 7 -7 22 -15 33 -12 15 -14 16 -15 3z"/>
<path d="M4726 6345 c4 -8 8 -15 10 -15 2 0 4 7 4 15 0 8 -4 15 -10 15 -5 0
-7 -7 -4 -15z"/>
<path d="M4370 6293 c0 -4 5 -15 10 -23 8 -13 10 -13 10 2 0 9 -4 20 -10 23
-5 3 -10 3 -10 -2z"/>
<path d="M4723 6263 c0 -15 6 -33 13 -41 8 -7 14 -20 14 -28 0 -8 5 -14 10
-14 14 0 12 50 -3 79 -17 35 -34 37 -34 4z"/>
<path d="M3260 6169 c0 -5 5 -7 10 -4 6 3 10 8 10 11 0 2 -4 4 -10 4 -5 0 -10
-5 -10 -11z"/>
<path d="M3448 6123 c5 -21 7 -23 10 -9 2 10 0 22 -6 28 -6 6 -7 0 -4 -19z"/>
<path d="M3278 6114 c6 -33 22 -41 22 -11 0 14 -6 27 -13 30 -10 4 -13 -2 -9
-19z"/>
<path d="M4720 6023 c0 -43 -13 -64 -24 -38 -3 8 -10 15 -16 15 -15 0 -12 -36
5 -50 8 -7 15 -19 15 -27 0 -8 6 -13 13 -10 6 2 18 -9 24 -26 20 -45 38 -29
36 33 -1 29 -7 58 -12 63 -6 6 -11 18 -11 27 0 9 -7 25 -15 36 -13 18 -14 16
-15 -23z"/>
<path d="M4585 5997 c-3 -9 -7 -24 -9 -31 -4 -12 -12 -13 -35 -6 -28 8 -31 7
-31 -14 0 -13 7 -40 16 -61 13 -31 19 -36 39 -31 14 4 25 1 27 -6 3 -9 12 -8
31 5 25 16 32 15 28 -6 -1 -4 7 -7 16 -5 15 2 18 -4 16 -30 -1 -39 -11 -52
-22 -33 -6 10 -10 9 -15 -4 -9 -25 -7 -35 6 -32 14 2 26 -83 20 -139 -5 -37
-22 -37 -22 1 0 12 -7 25 -15 29 -8 3 -15 11 -14 18 0 10 2 10 6 1 9 -23 23
-13 23 16 0 17 -6 31 -15 35 -13 5 -14 2 -4 -17 6 -12 8 -19 4 -15 -5 4 -14 3
-21 -3 -15 -12 -31 -1 -52 36 -11 20 -11 20 -12 -1 0 -12 7 -38 16 -59 8 -21
13 -48 10 -61 -3 -12 0 -28 7 -36 7 -7 19 -29 26 -48 20 -51 65 -82 60 -42 -3
34 2 48 10 27 6 -15 11 0 20 55 6 41 16 89 20 105 8 27 9 26 11 -20 1 -43 3
-47 11 -26 5 13 7 47 4 75 -3 28 -6 70 -8 93 -1 27 -7 43 -14 43 -7 0 -12 3
-11 8 1 4 -8 28 -20 54 -12 26 -22 52 -22 57 0 6 -7 11 -15 11 -8 0 -15 5 -15
10 0 6 -11 23 -25 37 -21 23 -25 25 -30 10z"/>
<path d="M3473 5975 c4 -16 9 -51 13 -78 3 -26 10 -50 15 -53 5 -3 9 -15 10
-27 0 -12 2 -17 5 -12 5 14 -30 182 -40 192 -5 4 -6 -5 -3 -22z"/>
<path d="M4924 5964 c3 -9 6 -24 6 -35 0 -10 5 -19 10 -19 6 0 9 12 6 28 -2
15 -5 30 -5 35 -1 4 -6 7 -12 7 -6 0 -8 -7 -5 -16z"/>
<path d="M4436 5943 c-8 -8 -6 -71 3 -103 5 -18 13 -24 27 -22 26 5 30 10 16
24 -8 8 -8 15 -1 24 7 8 5 17 -6 27 -8 9 -15 22 -15 31 0 17 -14 29 -24 19z"/>
<path d="M3385 5883 c3 -10 12 -38 18 -63 7 -25 18 -50 26 -56 11 -9 13 -30 7
-108 -4 -66 -3 -95 4 -91 6 3 8 17 6 29 -6 35 7 50 33 37 16 -9 20 -9 15 2 -3
8 2 20 11 27 21 17 19 29 -11 86 -14 27 -27 51 -28 54 0 3 -4 4 -7 3 -3 -1
-12 10 -20 25 -8 15 -20 31 -26 35 -7 4 -13 15 -13 22 0 8 -5 15 -11 15 -7 0
-8 -7 -4 -17z"/>
<path d="M4957 5849 c2 -17 9 -41 14 -53 6 -16 8 -9 6 28 -1 27 -7 51 -14 53
-8 3 -10 -6 -6 -28z"/>
<path d="M4620 5830 c0 -5 5 -10 10 -10 6 0 10 5 10 10 0 6 -4 10 -10 10 -5 0
-10 -4 -10 -10z"/>
<path d="M3226 5778 c-5 -21 -6 -45 -2 -53 6 -17 36 -21 36 -4 0 5 5 7 10 4 6
-3 10 -1 10 4 0 14 -13 14 -28 -1 -9 -9 -12 -9 -12 -1 0 7 5 15 10 18 6 3 10
13 10 21 0 8 -4 13 -9 9 -5 -3 -11 5 -13 17 -3 18 -6 15 -12 -14z"/>
<path d="M4801 5720 c0 -19 4 -44 9 -55 7 -16 9 -11 9 20 0 22 -4 47 -9 55 -7
11 -10 6 -9 -20z"/>
<path d="M4477 5719 c4 -13 8 -18 11 -10 2 7 -1 18 -6 23 -8 8 -9 4 -5 -13z"/>
<path d="M3555 5707 c-5 -19 -3 -37 5 -53 17 -31 18 -28 10 31 -6 46 -7 48
-15 22z"/>
<path d="M3305 5660 c-3 -5 1 -10 10 -10 9 0 13 5 10 10 -3 6 -8 10 -10 10 -2
0 -7 -4 -10 -10z"/>
<path d="M3349 5622 c7 -12 17 -20 22 -16 6 3 9 7 7 8 -2 1 -12 8 -22 16 -18
14 -19 14 -7 -8z"/>
<path d="M4520 5611 c0 -12 5 -21 10 -21 6 0 10 6 10 14 0 8 -4 18 -10 21 -5
3 -10 -3 -10 -14z"/>
<path d="M4600 5379 c0 -6 7 -17 15 -25 16 -16 19 -7 9 20 -7 18 -24 22 -24 5z"/>
<path d="M4056 4078 c4 -7 37 -43 73 -81 64 -66 181 -226 181 -246 0 -6 4 -11
9 -11 5 0 20 -17 32 -37 37 -63 128 -162 163 -178 18 -9 42 -24 52 -33 36 -32
119 -97 139 -108 11 -6 36 -38 55 -70 l35 -59 1 -185 c2 -181 19 -328 44 -368
12 -20 7 23 -17 136 -11 54 -14 98 -8 164 6 81 10 94 35 121 15 17 26 36 23
44 -3 7 -1 13 4 13 10 0 9 81 -2 130 -4 19 -21 48 -36 64 -16 17 -29 34 -29
40 0 5 -19 27 -42 48 -32 27 -38 38 -25 38 10 0 15 5 12 10 -4 6 -15 8 -25 5
-11 -3 -28 2 -41 12 -33 28 -69 67 -69 76 0 4 -4 5 -10 2 -5 -3 -20 10 -32 29
-13 19 -31 37 -40 39 -9 3 -22 22 -28 44 -9 29 -20 42 -41 50 -16 7 -31 11
-33 10 -7 -4 -33 31 -45 61 -11 27 -19 33 -36 30 -16 -4 -34 9 -71 51 -71 80
-142 144 -172 158 -36 16 -65 17 -56 1z"/>
<path d="M5907 4068 c-19 -50 -19 -54 -2 -37 9 9 15 25 13 35 -5 18 -5 18 -11
2z"/>
<path d="M3535 3870 c-149 -47 -173 -59 -196 -101 -7 -13 -3 -16 24 -14 18 2
34 4 37 5 3 1 17 1 32 0 16 -1 43 11 68 29 30 21 57 31 98 36 123 13 212 28
212 36 0 5 -13 15 -30 24 -46 24 -142 18 -245 -15z"/>
<path d="M5845 3860 c3 -5 14 -10 23 -10 15 0 15 2 2 10 -20 13 -33 13 -25 0z"/>
<path d="M1645 3430 c-3 -5 -1 -10 4 -10 6 0 11 5 11 10 0 6 -2 10 -4 10 -3 0
-8 -4 -11 -10z"/>
<path d="M1850 3395 c-14 -16 -10 -18 14 -9 9 3 16 10 16 15 0 14 -16 11 -30
-6z"/>
<path d="M1410 3384 c0 -8 5 -12 10 -9 6 4 8 11 5 16 -9 14 -15 11 -15 -7z"/>
<path d="M1741 3374 c0 -11 3 -14 6 -6 3 7 2 16 -1 19 -3 4 -6 -2 -5 -13z"/>
<path d="M1086 3335 c-3 -9 0 -15 9 -15 8 0 15 7 15 15 0 8 -4 15 -9 15 -5 0
-11 -7 -15 -15z"/>
<path d="M1400 3340 c-13 -8 -13 -10 2 -10 9 0 20 5 23 10 8 13 -5 13 -25 0z"/>
<path d="M1680 3325 c0 -8 5 -15 10 -15 6 0 10 7 10 15 0 8 -4 15 -10 15 -5 0
-10 -7 -10 -15z"/>
<path d="M1176 3185 c-19 -15 -19 -15 2 -15 13 0 22 6 22 15 0 18 0 18 -24 0z"/>
<path d="M1150 3103 c0 -5 5 -15 10 -23 8 -12 10 -11 10 8 0 12 -4 22 -10 22
-5 0 -10 -3 -10 -7z"/>
<path d="M1122 3069 c-7 -11 -11 -23 -9 -25 7 -7 29 24 25 36 -2 6 -9 1 -16
-11z"/>
<path d="M1290 3070 c-13 -8 -12 -10 3 -10 9 0 17 5 17 10 0 12 -1 12 -20 0z"/>
<path d="M2518 3063 c7 -3 16 -2 19 1 4 3 -2 6 -13 5 -11 0 -14 -3 -6 -6z"/>
<path d="M2477 3053 c-12 -12 -7 -22 8 -17 8 4 15 10 15 15 0 11 -14 12 -23 2z"/>
<path d="M1070 3020 c0 -5 7 -10 15 -10 8 0 15 5 15 10 0 6 -7 10 -15 10 -8 0
-15 -4 -15 -10z"/>
<path d="M3840 3009 c-15 -27 -10 -31 29 -23 30 6 31 8 15 25 -22 24 -31 24
-44 -2z"/>
<path d="M1000 2970 c0 -5 5 -10 10 -10 6 0 10 5 10 10 0 6 -4 10 -10 10 -5 0
-10 -4 -10 -10z"/>
<path d="M1 2654 c0 -11 3 -14 6 -6 3 7 2 16 -1 19 -3 4 -6 -2 -5 -13z"/>
<path d="M4768 2033 c-74 -79 -70 -72 -53 -96 8 -12 15 -16 15 -9 0 8 7 21 16
29 13 14 17 14 25 2 5 -8 9 -21 10 -29 0 -8 4 -4 8 10 4 14 13 24 20 22 7 -1
19 3 27 9 19 16 18 59 -1 59 -8 0 -15 -4 -15 -10 0 -5 -6 -10 -14 -10 -10 0
-13 8 -10 25 6 31 3 31 -28 -2z"/>
<path d="M4874 2003 c-10 -33 -33 -68 -44 -65 -13 3 -13 -25 0 -33 13 -8 56
25 70 54 11 25 5 61 -11 61 -5 0 -12 -8 -15 -17z"/>
<path d="M4960 2009 c0 -5 5 -7 10 -4 6 3 10 8 10 11 0 2 -4 4 -10 4 -5 0 -10
-5 -10 -11z"/>
<path d="M4922 1975 c0 -16 2 -22 5 -12 2 9 2 23 0 30 -3 6 -5 -1 -5 -18z"/>
<path d="M4659 1950 c-7 -5 -10 -12 -6 -17 5 -4 12 -1 17 7 8 13 10 12 10 -2
0 -10 5 -18 10 -18 15 0 12 27 -3 33 -8 3 -20 1 -28 -3z"/>
<path d="M4580 1919 c0 -5 5 -7 10 -4 6 3 10 8 10 11 0 2 -4 4 -10 4 -5 0 -10
-5 -10 -11z"/>
<path d="M4720 1900 c0 -5 5 -10 11 -10 5 0 7 5 4 10 -3 6 -8 10 -11 10 -2 0
-4 -4 -4 -10z"/>
<path d="M4585 1880 c4 -6 11 -8 16 -5 14 9 11 15 -7 15 -8 0 -12 -5 -9 -10z"/>
<path d="M2481 1824 c0 -11 3 -14 6 -6 3 7 2 16 -1 19 -3 4 -6 -2 -5 -13z"/>
<path d="M1098 1773 c7 -3 16 -2 19 1 4 3 -2 6 -13 5 -11 0 -14 -3 -6 -6z"/>
<path d="M2545 1750 c3 -5 8 -10 11 -10 2 0 4 5 4 10 0 6 -5 10 -11 10 -5 0
-7 -4 -4 -10z"/>
<path d="M6850 1488 c0 -9 5 -20 11 -23 17 -11 20 0 4 21 -13 17 -14 17 -15 2z"/>
<path d="M2472 1474 c-7 -8 -8 -14 -3 -14 10 0 25 19 20 25 -2 1 -10 -3 -17
-11z"/>
<path d="M7130 1405 c-11 -13 -8 -15 15 -15 23 0 26 2 15 15 -7 8 -14 15 -15
15 -1 0 -8 -7 -15 -15z"/>
<path d="M6960 1392 c0 -15 25 -40 48 -47 12 -3 22 -2 22 4 0 5 3 17 6 25 4
12 2 15 -9 10 -8 -3 -18 -1 -22 5 -7 13 -45 15 -45 3z"/>
<path d="M7073 1379 c-14 -5 -12 -8 12 -11 l30 -5 -29 -2 c-24 -1 -27 -3 -16
-16 10 -12 10 -15 -1 -15 -10 0 -11 -2 0 -12 10 -11 15 -10 24 2 7 8 24 21 40
27 15 7 27 17 27 22 0 11 -63 19 -87 10z"/>
<path d="M7226 1353 c-11 -11 -6 -23 9 -23 8 0 15 4 15 9 0 13 -16 22 -24 14z"/>
<path d="M7240 1300 c0 -5 7 -10 16 -10 8 0 12 5 9 10 -3 6 -10 10 -16 10 -5
0 -9 -4 -9 -10z"/>
<path d="M7097 1293 c-14 -13 -6 -21 18 -19 28 1 33 11 9 20 -19 7 -19 7 -27
-1z"/>
<path d="M7187 1280 c5 -20 7 -20 24 -4 24 22 24 24 -5 24 -19 0 -23 -4 -19
-20z"/>
<path d="M7146 1261 c-12 -5 -16 -10 -9 -14 13 -8 43 2 43 14 0 10 -8 10 -34
0z"/>
<path d="M7228 1258 c9 -9 15 -9 24 0 9 9 7 12 -12 12 -19 0 -21 -3 -12 -12z"/>
<path d="M7170 1221 c0 -21 26 -36 35 -21 4 6 18 8 33 4 26 -5 26 -5 8 10 -12
10 -28 13 -44 9 -17 -4 -23 -2 -18 6 4 6 2 11 -3 11 -6 0 -11 -9 -11 -19z"/>
<path d="M2650 1039 c0 -5 5 -7 10 -4 6 3 10 8 10 11 0 2 -4 4 -10 4 -5 0 -10
-5 -10 -11z"/>
<path d="M7500 960 c0 -5 5 -10 11 -10 5 0 7 5 4 10 -3 6 -8 10 -11 10 -2 0
-4 -4 -4 -10z"/>
<path d="M7860 690 c0 -5 14 -10 32 -10 36 0 35 4 -4 14 -17 4 -28 2 -28 -4z"/>
<path d="M2866 636 c3 -9 11 -16 16 -16 13 0 5 23 -10 28 -7 2 -10 -2 -6 -12z"/>
<path d="M8008 633 c7 -3 16 -2 19 1 4 3 -2 6 -13 5 -11 0 -14 -3 -6 -6z"/>
<path d="M2484 594 c-1 -13 2 -24 7 -24 5 0 9 2 9 4 0 2 3 11 6 19 3 8 -1 17
-8 19 -8 4 -14 -3 -14 -18z"/>
<path d="M2576 604 c-17 -17 -21 -44 -7 -44 5 0 11 7 15 15 3 8 12 15 19 15 8
0 20 7 27 15 11 13 8 15 -13 15 -14 0 -33 -7 -41 -16z"/>
<path d="M2858 593 c-9 -10 -13 -24 -11 -31 3 -7 -9 -28 -26 -48 -17 -19 -31
-41 -31 -49 0 -8 -4 -15 -9 -15 -15 0 -23 -38 -13 -56 7 -13 13 -9 32 23 13
21 32 54 41 74 9 20 27 46 40 58 12 11 17 21 11 21 -10 0 -10 5 -2 20 14 26
-10 28 -32 3z"/>
<path d="M8028 603 c7 -3 16 -2 19 1 4 3 -2 6 -13 5 -11 0 -14 -3 -6 -6z"/>
<path d="M2541 536 c-14 -17 -8 -46 9 -46 16 0 23 26 13 45 -9 15 -11 15 -22
1z"/>
<path d="M7930 520 c0 -5 7 -10 15 -10 8 0 15 5 15 10 0 6 -7 10 -15 10 -8 0
-15 -4 -15 -10z"/>
<path d="M2655 480 c-3 -5 -1 -10 4 -10 6 0 11 5 11 10 0 6 -2 10 -4 10 -3 0
-8 -4 -11 -10z"/>
<path d="M2697 456 c-13 -11 -29 -29 -35 -38 -11 -14 -10 -16 8 -11 11 3 27
15 35 26 15 21 15 21 15 1 0 -11 -5 -25 -12 -32 -7 -7 -8 -12 -2 -12 13 0 49
39 57 61 9 27 -38 31 -66 5z"/>
<path d="M2556 441 c-16 -17 -16 -22 -4 -40 18 -25 45 -12 33 15 -5 11 -7 25
-6 32 3 17 -3 15 -23 -7z"/>
<path d="M2852 432 c-5 -16 -32 -52 -60 -81 -46 -48 -51 -51 -75 -40 -22 10
-24 15 -17 35 13 33 4 30 -15 -5 -11 -22 -20 -28 -35 -24 -14 4 -28 -3 -45
-21 -25 -27 -36 -51 -13 -28 21 21 41 15 35 -10 -5 -19 -1 -17 22 11 20 24 30
30 33 20 7 -18 -23 -78 -51 -103 -12 -11 -21 -26 -21 -33 0 -24 24 -9 42 27
10 19 27 43 38 54 l20 21 -6 -34 c-5 -21 -22 -47 -46 -69 -21 -19 -38 -40 -38
-47 0 -6 -9 -20 -20 -30 -11 -10 -20 -23 -19 -29 0 -6 3 -6 6 2 2 6 8 10 13 7
4 -3 28 18 52 47 23 29 50 60 58 69 8 8 38 42 67 75 36 42 59 60 78 62 37 3
43 8 54 48 7 26 6 44 -5 69 -17 42 -39 45 -52 7z"/>
<path d="M2327 402 c-19 -21 -22 -48 -6 -57 6 -4 8 -13 5 -21 -11 -28 14 -24
29 5 19 38 19 55 0 47 -12 -4 -14 0 -9 19 7 30 3 31 -19 7z"/>
<path d="M2615 409 c-4 -6 -5 -12 -2 -15 2 -3 7 2 10 11 7 17 1 20 -8 4z"/>
<path d="M8020 352 c0 -11 7 -25 15 -32 12 -10 15 -9 15 4 0 10 -7 24 -15 32
-13 14 -15 13 -15 -4z"/>
<path d="M2526 341 c-4 -7 -5 -15 -2 -18 9 -9 19 4 14 18 -4 11 -6 11 -12 0z"/>
<path d="M2382 325 c-7 -8 -9 -15 -5 -15 4 0 0 -5 -9 -11 -20 -11 -43 -49 -31
-49 16 0 84 70 78 80 -8 14 -18 12 -33 -5z"/>
<path d="M2458 328 c-16 -5 -28 -16 -28 -24 0 -11 7 -13 28 -8 33 8 54 23 46
35 -6 11 -11 10 -46 -3z"/>
<path d="M8063 312 c-29 -25 -32 -45 -12 -66 18 -19 19 -19 19 -1 0 10 3 16 6
12 3 -3 15 3 26 13 20 18 20 18 0 38 -19 19 -22 20 -39 4z"/>
<path d="M585 260 c3 -5 8 -10 11 -10 2 0 4 5 4 10 0 6 -5 10 -11 10 -5 0 -7
-4 -4 -10z"/>
<path d="M2443 243 c-18 -7 -16 -23 2 -23 8 0 15 7 15 15 0 8 -1 15 -2 14 -2
0 -9 -3 -15 -6z"/>
<path d="M3105 240 c3 -5 8 -10 11 -10 2 0 4 5 4 10 0 6 -5 10 -11 10 -5 0 -7
-4 -4 -10z"/>
<path d="M3133 238 c2 -7 -2 -21 -10 -30 -13 -15 -13 -16 3 -14 18 3 35 34 27
49 -7 12 -25 8 -20 -5z"/>
<path d="M2383 220 c-8 -11 -9 -21 -3 -25 8 -5 30 24 30 39 0 13 -16 5 -27
-14z"/>
<path d="M2006 198 c-8 -20 -18 -56 -22 -80 -4 -23 -13 -55 -20 -70 -19 -37
-18 -48 5 -48 22 0 31 19 31 64 0 17 7 58 15 91 19 70 14 95 -9 43z"/>
<path d="M2592 214 c-8 -8 -22 -12 -31 -9 -10 3 -29 -4 -44 -15 -29 -23 -53
-26 -59 -8 -3 9 -8 6 -15 -7 -10 -19 -8 -20 35 -22 29 -2 55 3 71 13 l24 17
-19 -29 c-11 -16 -25 -42 -32 -57 -6 -15 -19 -30 -27 -33 -8 -4 -15 -14 -15
-23 0 -9 -5 -22 -12 -29 -9 -9 -8 -12 4 -12 17 0 29 17 68 97 11 23 31 55 44
70 37 45 44 89 8 47z"/>
<path d="M800 150 c0 -4 11 -10 25 -12 14 -3 25 -2 25 2 0 4 -11 10 -25 12
-14 3 -25 2 -25 -2z"/>
<path d="M2158 93 c-7 -48 7 -62 26 -25 20 38 20 46 2 39 -8 -3 -17 -1 -19 6
-2 7 -6 -3 -9 -20z"/>
<path d="M2032 85 c-17 -37 -14 -45 4 -12 9 16 14 31 11 33 -2 2 -9 -7 -15
-21z"/>
<path d="M2317 92 c-10 -10 -17 -25 -17 -33 0 -33 -52 -54 -64 -26 -3 8 -10 6
-22 -8 -16 -19 -16 -19 -10 9 7 26 6 28 -9 16 -9 -7 -21 -22 -26 -32 -9 -17
-4 -18 69 -18 l78 0 11 53 c6 28 10 53 9 55 -2 1 -10 -6 -19 -16z"/>
<path d="M2555 83 c-30 -40 -37 -53 -28 -53 15 0 73 61 68 71 -10 14 -19 10
-40 -18z"/>
<path d="M6864 57 c-17 -17 -39 -37 -50 -44 -16 -10 -11 -12 33 -12 52 -1 52
-1 59 35 9 51 -6 59 -42 21z"/>
<path d="M2707 34 c-28 -32 -28 -34 -8 -34 12 0 24 8 27 18 3 9 10 25 15 35
15 28 -4 18 -34 -19z"/>
<path d="M2937 63 c-4 -3 -7 -11 -7 -17 0 -6 5 -5 12 2 6 6 9 14 7 17 -3 3 -9
2 -12 -2z"/>
<path d="M2760 39 c-6 -11 -10 -25 -7 -32 2 -6 9 3 15 21 12 36 8 42 -8 11z"/>
</g>
</svg>
